<svg width="156" height="38" viewBox="0 0 156 38" fill="none" xmlns="http://www.w3.org/2000/svg">
<path d="M0 16C0 7.16344 7.16344 0 16 0H156V22C156 30.8366 148.837 38 140 38H0V16Z" fill="#003a5b"/>
<g clip-path="url(#clip0_3699_452)">
<path d="M22.4844 6.22437C15.5887 6.22437 10 11.5518 10 18.1241C10 24.6964 15.5887 30.0248 22.4844 30.0248C29.3791 30.0248 34.9678 24.6964 34.9678 18.1241C34.9678 11.5517 29.3791 6.22437 22.4844 6.22437ZM17.829 23.3155C17.0273 23.3155 16.308 23.146 15.7032 22.8194C14.4756 22.151 13.7392 20.9539 13.7392 19.6324C13.7392 18.2974 14.3942 17.2871 15.2109 16.0278L17.5999 12.314H20.218L16.8635 17.4585C16.3733 18.2036 15.9966 18.8098 15.9966 19.4782C15.9966 20.5182 16.7661 21.2345 17.845 21.2345C18.9732 21.2345 19.7588 20.4722 19.7588 19.4322C19.7588 18.4372 18.9732 17.7228 17.7807 17.7228H17.6984L18.9571 15.8104C20.872 16.0757 22.0333 17.4116 22.0333 19.2924C22.0333 21.5917 20.2662 23.3155 17.829 23.3155ZM30.3837 23.1766H23.8567C22.9897 23.1766 22.4341 22.6643 22.4341 21.9489C22.4341 21.3744 22.7777 20.9539 23.3504 20.4109L26.9811 16.9759C27.5547 16.4482 27.8319 15.9512 27.8319 15.4226C27.8319 14.6449 27.177 14.0704 26.3602 14.0704C25.5264 14.0704 24.8703 14.6928 24.8703 15.5001C24.8703 16.0278 25.1828 16.4942 25.8197 16.9299L24.2987 18.3903C23.2188 17.7066 22.6471 16.7431 22.6471 15.5777C22.6471 13.6356 24.2827 12.1283 26.4747 12.1283C27.5226 12.1283 28.4538 12.4701 29.1732 13.1079C29.8774 13.7285 30.2702 14.5674 30.2702 15.4226C30.2702 16.9606 29.37 17.7994 28.0118 18.9812L25.6238 21.0631H30.3837V23.1766Z" fill="#fff"/>
<path d="M70.6199 23.9978C71.0919 24.1436 71.4732 24.4101 71.7659 24.7974C72.0014 25.1107 72.1602 25.4501 72.2451 25.8158C72.3311 26.1814 72.3741 26.5288 72.3741 26.8592C72.3741 27.6976 72.1937 28.4084 71.834 28.9893C71.3477 29.773 70.5961 30.166 69.5779 30.166H66.6777V23.8611H69.5779C69.995 23.8668 70.3427 23.9124 70.6199 23.9978ZM68.0424 24.9558V29.0702H69.3413C70.0057 29.0702 70.4682 28.7638 70.7299 28.151C70.8733 27.8138 70.945 27.4139 70.945 26.9492C70.945 26.3079 70.8374 25.8146 70.6224 25.4718C70.4084 25.1278 69.9806 24.9558 69.3413 24.9558H68.0424Z" fill="#fff"/>
<path d="M76.5649 25.5982C76.9115 25.7429 77.1983 25.973 77.4229 26.2874C77.6273 26.5653 77.7599 26.8866 77.8196 27.2511C77.8543 27.4653 77.8699 27.7739 77.8639 28.1772H74.2407C74.261 28.6453 74.4331 28.9723 74.7605 29.1603C74.9589 29.2775 75.1979 29.3356 75.4775 29.3356C75.7739 29.3356 76.0141 29.2639 76.1993 29.1226C76.2996 29.0452 76.3893 28.9381 76.467 28.8014H77.7946C77.7599 29.0782 77.5998 29.3584 77.313 29.6432C76.8673 30.0977 76.2435 30.3244 75.4417 30.3244C74.7797 30.3244 74.1953 30.133 73.6887 29.7503C73.1832 29.3675 72.9298 28.7456 72.9298 27.8833C72.9298 27.0757 73.1592 26.456 73.6157 26.0255C74.0722 25.596 74.6661 25.3795 75.395 25.3795C75.8277 25.3795 76.2172 25.4513 76.5649 25.5982ZM74.6183 26.6508C74.4343 26.8285 74.3196 27.0688 74.273 27.373H76.5136C76.4897 27.0495 76.3726 26.8034 76.167 26.636C75.9591 26.4674 75.7022 26.3843 75.395 26.3843C75.0617 26.3843 74.8024 26.4731 74.6183 26.6508ZM76.933 23.5957L75.5444 24.8749H74.6052L75.4811 23.5957H76.933Z" fill="#fff"/>
<path d="M82.7047 26.0037C83.1098 26.4058 83.3129 26.9959 83.3129 27.7751C83.3129 28.5964 83.1146 29.2217 82.719 29.6523C82.3223 30.0829 81.8109 30.2993 81.1871 30.2993C80.788 30.2993 80.457 30.2048 80.1941 30.0202C80.0506 29.9177 79.9096 29.7673 79.771 29.5714V32H78.4852V25.5037H79.7304V26.1928C79.8714 25.989 80.022 25.8306 80.1809 25.7133C80.4713 25.5048 80.8178 25.4011 81.2194 25.4011C81.8037 25.4011 82.2996 25.6027 82.7047 26.0037ZM81.7069 26.8809C81.5288 26.604 81.2432 26.4651 80.8465 26.4651C80.3697 26.4651 80.0423 26.6758 79.8642 27.0939C79.7722 27.3171 79.7256 27.5996 79.7256 27.9413C79.7256 28.4824 79.881 28.8629 80.1917 29.0839C80.3757 29.2114 80.5944 29.2764 80.8465 29.2764C81.2121 29.2764 81.4906 29.1442 81.683 28.8822C81.8754 28.6203 81.9722 28.2717 81.9722 27.8343C81.9722 27.4743 81.8825 27.1565 81.7069 26.8809Z" fill="#fff"/>
<path d="M86.2011 27.3308C86.4437 27.3013 86.6158 27.2659 86.721 27.2226C86.9073 27.1486 87.0006 27.0336 87.0006 26.8763C87.0006 26.6861 86.9289 26.5529 86.7855 26.4811C86.6421 26.4082 86.4329 26.3717 86.1546 26.3717C85.8426 26.3717 85.6228 26.4435 85.4925 26.5859C85.3993 26.6907 85.3395 26.833 85.3085 27.0142H84.0526C84.08 26.6064 84.2031 26.2704 84.4194 26.0084C84.7648 25.5983 85.3575 25.3921 86.1976 25.3921C86.7448 25.3921 87.2312 25.4946 87.6566 25.6962C88.0797 25.899 88.2923 26.2806 88.2923 26.8421V28.9814C88.2923 29.1295 88.296 29.3095 88.3019 29.5202C88.3103 29.6797 88.3366 29.7879 88.3796 29.8449C88.4226 29.9018 88.4859 29.9497 88.5708 29.9861V30.1661H87.1571C87.1165 30.0716 87.0902 29.9827 87.0747 29.9007C87.0591 29.8175 87.046 29.7241 87.0376 29.617C86.8572 29.8004 86.6481 29.9553 86.4139 30.084C86.1319 30.2356 85.8128 30.3107 85.4579 30.3107C85.005 30.3107 84.6309 30.1911 84.3358 29.9497C84.0406 29.7081 83.8925 29.3664 83.8925 28.9245C83.8925 28.3515 84.1303 27.938 84.6058 27.6805C84.8664 27.5404 85.25 27.4402 85.7554 27.381L86.2011 27.3308ZM86.9958 27.8981C86.9133 27.9471 86.8297 27.987 86.7448 28.0166C86.6588 28.0462 86.5429 28.0736 86.3959 28.0997L86.0984 28.151C85.8211 28.1966 85.6228 28.2524 85.5009 28.3173C85.2965 28.4289 85.1938 28.6021 85.1938 28.8356C85.1938 29.044 85.2571 29.1944 85.3814 29.2867C85.5069 29.3801 85.6586 29.4256 85.8379 29.4256C86.1223 29.4256 86.384 29.3494 86.623 29.1944C86.8632 29.0407 86.9862 28.7593 86.9958 28.3515V27.8981Z" fill="#fff"/>
<path d="M92.1928 25.3944C92.2095 25.3955 92.2466 25.3978 92.304 25.4012V26.6497C92.2226 26.6417 92.1486 26.636 92.0852 26.6326C92.0219 26.6303 91.9693 26.6292 91.9299 26.6292C91.4065 26.6292 91.0552 26.7886 90.876 27.1076C90.7756 27.2876 90.7254 27.5643 90.7254 27.938V30.1661H89.4156V25.5037H90.6561V26.3159C90.858 26.0049 91.0325 25.7931 91.1819 25.678C91.4245 25.4878 91.7411 25.3921 92.1306 25.3921C92.1545 25.3921 92.1749 25.3933 92.1928 25.3944Z" fill="#fff"/>
<path d="M92.7891 26.4149V25.5458H93.4834V24.2461H94.7691V25.5458H95.5781V26.4149H94.7691V28.8777C94.7691 29.069 94.7967 29.1886 94.848 29.2342C94.8994 29.282 95.0572 29.306 95.3224 29.306C95.3619 29.306 95.4037 29.306 95.4467 29.3037C95.4921 29.3026 95.5351 29.3003 95.5781 29.2968V30.2081L94.9615 30.2298C94.3461 30.2491 93.9267 30.15 93.702 29.9302C93.5562 29.7912 93.4834 29.5748 93.4834 29.2843V26.4149L92.7891 26.4149Z" fill="#fff"/>
<path d="M99.6541 25.5982C100.001 25.7429 100.288 25.973 100.513 26.2874C100.718 26.5653 100.849 26.8866 100.91 27.2511C100.945 27.4652 100.959 27.7739 100.953 28.1772H97.3287C97.3503 28.6453 97.5235 28.9723 97.8497 29.1602C98.0481 29.2775 98.2871 29.3356 98.5667 29.3356C98.8631 29.3356 99.1033 29.2639 99.2897 29.1226C99.3901 29.0452 99.4785 28.9381 99.5562 28.8014H100.885C100.85 29.0782 100.689 29.3584 100.402 29.6432C99.9577 30.0977 99.3339 30.3243 98.5309 30.3243C97.8701 30.3243 97.2845 30.133 96.779 29.7503C96.2724 29.3675 96.019 28.7456 96.019 27.8833C96.019 27.0756 96.2485 26.456 96.705 26.0254C97.1614 25.596 97.7553 25.3795 98.4843 25.3795C98.9168 25.3795 99.3064 25.4513 99.6541 25.5982ZM97.7087 26.6508C97.5247 26.8285 97.4088 27.0688 97.3622 27.373H99.6027C99.5789 27.0494 99.4629 26.8034 99.2562 26.6359C99.0483 26.4674 98.7902 26.3842 98.4843 26.3842C98.1509 26.3842 97.8916 26.4731 97.7087 26.6508Z" fill="#fff"/>
<path d="M107.817 25.5207C108.031 25.6005 108.223 25.7394 108.398 25.94C108.538 26.1017 108.631 26.3022 108.68 26.5391C108.71 26.6952 108.726 26.9253 108.726 27.2283L108.717 30.166H107.384V27.1975C107.384 27.021 107.353 26.8752 107.294 26.7601C107.176 26.5448 106.965 26.4355 106.654 26.4355C106.295 26.4355 106.047 26.5756 105.91 26.8558C105.841 27.0027 105.806 27.1816 105.806 27.39V30.166H104.495V27.39C104.495 27.1132 104.464 26.9127 104.404 26.7863C104.294 26.5607 104.079 26.4491 103.76 26.4491C103.388 26.4491 103.14 26.5607 103.012 26.7863C102.942 26.915 102.907 27.1052 102.907 27.3604V30.166H101.588V25.5116H102.853V26.1928C103.013 25.9502 103.165 25.7771 103.308 25.6734C103.562 25.4923 103.888 25.4011 104.289 25.4011C104.671 25.4011 104.978 25.4797 105.212 25.6358C105.401 25.7816 105.543 25.9684 105.641 26.1962C105.812 25.9229 106.022 25.7213 106.274 25.5936C106.543 25.4649 106.841 25.4011 107.169 25.4011C107.388 25.4011 107.604 25.4398 107.817 25.5207Z" fill="#fff"/>
<path d="M113.163 25.5982C113.51 25.7429 113.797 25.973 114.022 26.2874C114.227 26.5653 114.358 26.8866 114.419 27.2511C114.454 27.4652 114.468 27.7739 114.461 28.1772H110.838C110.858 28.6453 111.033 28.9723 111.359 29.1602C111.557 29.2775 111.796 29.3356 112.076 29.3356C112.371 29.3356 112.612 29.2639 112.798 29.1226C112.899 29.0452 112.989 28.9381 113.065 28.8014H114.394C114.358 29.0782 114.198 29.3584 113.911 29.6432C113.466 30.0977 112.843 30.3243 112.039 30.3243C111.378 30.3243 110.795 30.133 110.288 29.7503C109.782 29.3675 109.528 28.7456 109.528 27.8833C109.528 27.0756 109.756 26.456 110.214 26.0254C110.671 25.596 111.263 25.3795 111.992 25.3795C112.426 25.3795 112.816 25.4513 113.163 25.5982ZM111.217 26.6508C111.034 26.8285 110.918 27.0688 110.87 27.373H113.111C113.088 27.0494 112.972 26.8034 112.764 26.6359C112.557 26.4674 112.301 26.3842 111.993 26.3842C111.659 26.3842 111.401 26.4731 111.217 26.6508Z" fill="#fff"/>
<path d="M119.132 25.7703C119.457 26.022 119.62 26.4412 119.62 27.0256V30.1661H118.287V27.3308C118.287 27.0848 118.251 26.8969 118.182 26.7647C118.056 26.5255 117.814 26.4059 117.458 26.4059C117.019 26.4059 116.72 26.5813 116.556 26.9321C116.472 27.1167 116.429 27.3548 116.429 27.6418V30.1661H115.129V25.5117H116.389V26.1929C116.555 25.9526 116.712 25.7794 116.862 25.6734C117.127 25.4866 117.465 25.3921 117.875 25.3921C118.387 25.3921 118.806 25.5185 119.132 25.7703Z" fill="#fff"/>
<path d="M120.319 26.4149V25.5458H121.013V24.2461H122.299V25.5458H123.107V26.4149H122.299V28.8777C122.299 29.069 122.324 29.1886 122.377 29.2342C122.428 29.282 122.587 29.306 122.851 29.306C122.89 29.306 122.933 29.306 122.977 29.3037C123.021 29.3026 123.065 29.3003 123.107 29.2968V30.2081L122.491 30.2298C121.876 30.2491 121.456 30.15 121.231 29.9302C121.086 29.7912 121.013 29.5748 121.013 29.2843V26.4149L120.319 26.4149Z" fill="#fff"/>
<path d="M53.8126 21.3141C53.8437 21.3141 53.8772 21.3505 53.913 21.4223C53.9489 21.4952 53.9835 21.5772 54.0158 21.6684C54.0469 21.7607 54.0755 21.8518 54.0994 21.944C54.1234 22.0352 54.1353 22.0967 54.1353 22.1263C54.1353 22.1411 54.0851 22.2425 53.9847 22.4293C53.8855 22.6161 53.7517 22.8644 53.5844 23.172C53.4171 23.4807 53.2247 23.8349 53.0096 24.2359C52.7945 24.6357 52.5686 25.0572 52.3344 25.498C52.0978 25.9411 51.8636 26.3922 51.6282 26.8536C51.3928 27.3137 51.1717 27.7569 50.9638 28.1795C50.7571 28.6021 50.5731 28.9974 50.4142 29.3619C50.254 29.7287 50.1345 30.0374 50.0545 30.2891C50.0389 30.3494 49.9852 30.3585 49.8931 30.3175C49.8011 30.2754 49.7031 30.215 49.6004 30.1342C49.4964 30.0545 49.4044 29.9724 49.3243 29.8893C49.2455 29.805 49.206 29.7514 49.206 29.7287C49.2765 29.4769 49.341 29.2559 49.396 29.0657C49.4522 28.8755 49.5203 28.6795 49.6004 28.4768C49.6804 28.2752 49.7808 28.0496 49.9051 27.8013C50.0293 27.5541 50.1895 27.2431 50.3902 26.8707C50.5898 26.497 50.8383 26.0437 51.1383 25.5094C51.437 24.9763 51.8015 24.3247 52.2317 23.5547C51.0678 24.4626 50.107 25.3101 49.3482 26.0995C48.5906 26.8877 47.9848 27.5723 47.5295 28.1555C47.0742 28.7399 46.7468 29.1967 46.5484 29.5293C46.3488 29.8597 46.2258 30.0248 46.1768 30.0248C46.1302 30.0248 46.0656 29.994 45.9856 29.9348C45.9055 29.8733 45.8266 29.8061 45.7465 29.7343C45.6677 29.6614 45.5996 29.5908 45.5434 29.5224C45.4872 29.4541 45.4598 29.4085 45.4598 29.3858C45.5553 29.2184 45.6952 28.9586 45.878 28.6078C46.0621 28.2569 46.2592 27.8708 46.4707 27.4482C46.6822 27.0244 46.8997 26.5847 47.1232 26.1279C47.3454 25.6689 47.5474 25.2497 47.7267 24.8647C47.9059 24.4797 48.054 24.1516 48.1688 23.8805C48.2859 23.6105 48.3433 23.4454 48.3433 23.385C47.8401 23.8258 47.3526 24.3065 46.8782 24.8237C46.4026 25.3431 45.9569 25.8591 45.5434 26.3717C45.1288 26.8877 44.7475 27.3833 44.401 27.8594C44.0533 28.3355 43.7546 28.757 43.5036 29.1226C43.2514 29.4883 43.0507 29.7822 42.8978 30.002C42.7472 30.2242 42.6635 30.3346 42.6468 30.3346C42.6158 30.3346 42.562 30.3062 42.4855 30.2481C42.4102 30.1923 42.3326 30.1251 42.2525 30.0487C42.1724 29.9724 42.1007 29.8938 42.0373 29.8152C41.9729 29.7343 41.9418 29.6671 41.9418 29.6136C42.3481 28.9427 42.8057 28.2649 43.3112 27.5792C43.8179 26.8934 44.3389 26.2362 44.873 25.6062C45.4072 24.9786 45.9342 24.3908 46.4516 23.8407C46.9714 23.2927 47.4446 22.8143 47.876 22.4065C48.3074 21.9976 48.6755 21.6775 48.9778 21.4462C49.2801 21.2139 49.4844 21.0977 49.5884 21.0977C49.6673 21.0977 49.7426 21.133 49.8154 21.2059C49.8871 21.2788 49.9528 21.3597 50.0126 21.452C50.0724 21.5431 50.1202 21.6331 50.156 21.7208C50.1919 21.8085 50.2098 21.8677 50.2098 21.8973C50.2098 21.9133 50.1859 21.9737 50.1381 22.0807C50.0903 22.1878 50.0293 22.3234 49.9528 22.4862C49.8764 22.6502 49.7916 22.8348 49.6959 23.041C49.6004 23.2472 49.5 23.4568 49.396 23.6698C49.157 24.1733 48.887 24.7371 48.5822 25.3613C49.4366 24.5981 50.2027 23.9169 50.8802 23.3155C51.167 23.0569 51.4526 22.804 51.7358 22.5603C52.019 22.3176 52.2723 22.0978 52.4958 21.903C52.7192 21.7082 52.9045 21.5533 53.0514 21.4349C53.1996 21.3164 53.2809 21.2583 53.2976 21.2583C53.3287 21.2583 53.3586 21.2708 53.3872 21.297C53.4159 21.3244 53.441 21.3528 53.4649 21.3824C53.496 21.4132 53.5199 21.452 53.5366 21.4975C53.5689 21.4667 53.6011 21.4372 53.6322 21.4064C53.6967 21.3449 53.7564 21.3141 53.8126 21.3141ZM43.6052 27.3855C43.6207 27.3548 43.6351 27.3274 43.647 27.3046C43.6589 27.2819 43.6721 27.2625 43.6876 27.2477C43.6721 27.2625 43.6542 27.2819 43.6351 27.3046C43.6148 27.3274 43.5968 27.3502 43.5801 27.3741C43.5574 27.4185 43.5096 27.4801 43.4367 27.5564C43.3973 27.6247 43.3447 27.701 43.2814 27.7842C43.2574 27.8229 43.2335 27.8594 43.2097 27.8936C43.1857 27.9289 43.1618 27.9642 43.138 28.0029C43.1069 28.0405 43.0794 28.0747 43.0603 28.1054C43.0399 28.135 43.0232 28.1658 43.0065 28.1965C42.9814 28.2273 42.9647 28.2535 42.9527 28.2763C42.9408 28.3002 42.9265 28.3184 42.9109 28.3333C42.8941 28.356 42.887 28.3754 42.887 28.3902C42.8941 28.3834 42.9061 28.3674 42.9228 28.3446C42.9384 28.3298 42.9551 28.3116 42.9695 28.2877C42.9862 28.2649 43.0029 28.2387 43.0185 28.2091C43.0423 28.1772 43.0663 28.1487 43.0902 28.1225C43.114 28.0952 43.138 28.0633 43.1618 28.0257C43.1857 27.9869 43.212 27.9505 43.2395 27.9163C43.267 27.881 43.2945 27.8457 43.3184 27.807C43.3495 27.7705 43.3769 27.7329 43.4009 27.6931C43.4259 27.6555 43.4486 27.6179 43.4726 27.5792C43.4977 27.5416 43.5215 27.5063 43.5454 27.4755C43.5694 27.4459 43.5884 27.4151 43.6052 27.3855ZM46.6798 23.8292C46.7599 23.7461 46.8328 23.6686 46.9021 23.5946C46.969 23.5228 47.0264 23.4602 47.0742 23.4066C47.1304 23.3463 47.1782 23.2927 47.2176 23.2472C47.2021 23.254 47.1865 23.2654 47.1698 23.2802C47.1542 23.2962 47.1387 23.3132 47.1232 23.3314C47.1064 23.352 47.0874 23.3724 47.0622 23.3952C46.9511 23.4863 46.8113 23.6208 46.644 23.795C46.6046 23.8407 46.5616 23.8873 46.5185 23.9329C46.4743 23.9785 46.4289 24.024 46.3811 24.0696C46.3333 24.1231 46.2843 24.1744 46.2377 24.2245C46.1887 24.2735 46.1373 24.3247 46.0824 24.3783C45.9772 24.4933 45.8756 24.6061 45.7765 24.7223C45.6773 24.8362 45.5709 24.9536 45.4598 25.0754C45.3558 25.1973 45.2543 25.3169 45.1539 25.4365C45.0547 25.5539 44.9567 25.6689 44.8611 25.7839C44.7655 25.8978 44.6759 26.0095 44.5922 26.1154C44.5086 26.2225 44.4261 26.3216 44.3472 26.4139C44.2744 26.505 44.2087 26.5893 44.1489 26.6645C44.0903 26.7408 44.0389 26.8091 43.9995 26.8707C43.9768 26.9003 43.9577 26.9253 43.9469 26.9447C43.9338 26.964 43.9207 26.9811 43.9039 26.9959C43.8872 27.0187 43.88 27.0335 43.88 27.0415C43.9207 26.9959 43.9685 26.9424 44.0234 26.882C44.0629 26.8274 44.1154 26.7647 44.18 26.6929C44.2433 26.6212 44.315 26.538 44.3951 26.4469C44.4739 26.3558 44.5576 26.2589 44.646 26.1553C44.7332 26.0527 44.8253 25.9446 44.922 25.8295C45.0176 25.7145 45.1144 25.5994 45.2136 25.481C45.314 25.3624 45.4192 25.2474 45.5303 25.1324C45.6343 25.0105 45.7394 24.8909 45.8422 24.7736C45.945 24.654 46.0453 24.5412 46.1409 24.4364C46.2449 24.3213 46.3405 24.2131 46.4289 24.1106C46.5162 24.0069 46.601 23.9136 46.6798 23.8292ZM48.2476 24.5263C48.2632 24.482 48.2752 24.4512 48.2835 24.4364C48.2919 24.4216 48.2955 24.4091 48.2955 24.4022L48.2357 24.5161C48.2202 24.5537 48.1975 24.597 48.1688 24.646C48.1413 24.6961 48.1126 24.7519 48.0804 24.8123C48.0481 24.8738 48.017 24.9376 47.9848 25.0071C47.9525 25.0754 47.9166 25.1472 47.876 25.2235C47.8366 25.3078 47.8007 25.3898 47.7684 25.4695C47.7374 25.5504 47.7016 25.6324 47.6609 25.7145C47.6215 25.7988 47.5845 25.8819 47.5474 25.9616C47.5115 26.0414 47.4781 26.12 47.4446 26.1963C47.4052 26.2794 47.3717 26.3569 47.3443 26.4298C47.3156 26.5027 47.2905 26.5699 47.2666 26.6314C47.2343 26.6918 47.208 26.7453 47.1889 26.7955C47.1686 26.8456 47.1495 26.89 47.1339 26.9276C47.1268 26.9504 47.1148 26.9777 47.0993 27.0085C47.0909 27.0233 47.0874 27.0335 47.0874 27.0415L47.1459 26.9276C47.1626 26.89 47.1842 26.8479 47.2128 26.8011C47.2403 26.7556 47.2702 26.7032 47.3024 26.6417C47.3419 26.5813 47.3777 26.5164 47.4088 26.4469C47.4411 26.3785 47.4781 26.3068 47.5175 26.2305C47.5569 26.1462 47.5964 26.0665 47.631 25.989C47.6669 25.9138 47.7051 25.834 47.7457 25.7498C47.784 25.6655 47.8211 25.5846 47.8521 25.5049C47.8844 25.424 47.9166 25.3431 47.9489 25.2588C47.9883 25.1745 48.023 25.0959 48.0505 25.0242C48.0791 24.9501 48.1043 24.8852 48.1281 24.8237C48.1604 24.7633 48.1843 24.7086 48.1998 24.6574C48.2154 24.6084 48.2309 24.5651 48.2476 24.5263ZM50.928 26.2533C50.9435 26.2305 50.9531 26.2111 50.9578 26.1963C50.9614 26.1804 50.9686 26.1655 50.9758 26.1496L51.0008 26.104C50.9925 26.112 50.9841 26.1245 50.9758 26.1382C50.9686 26.1542 50.9602 26.1689 50.9519 26.1837C50.9435 26.1997 50.9316 26.2191 50.916 26.2418C50.8921 26.2954 50.8599 26.3523 50.8216 26.4139C50.781 26.4742 50.7416 26.546 50.7009 26.6314C50.6603 26.7134 50.6173 26.8011 50.5695 26.8934C50.5217 26.9846 50.4691 27.0836 50.4142 27.1907C50.3663 27.2898 50.3161 27.3946 50.2636 27.504C50.2122 27.6145 50.1572 27.7238 50.1023 27.8309C50.0783 27.8833 50.0545 27.938 50.0318 27.9915C50.0066 28.0439 49.9828 28.1008 49.9588 28.1613C49.935 28.2159 49.9111 28.2695 49.8871 28.3219C49.8633 28.3754 49.8394 28.4301 49.8154 28.4824C49.776 28.5895 49.7378 28.6898 49.7019 28.7855C49.6649 28.8811 49.6278 28.97 49.5884 29.0543C49.5633 29.1443 49.5394 29.2252 49.5155 29.2935C49.5 29.3323 49.488 29.3642 49.4809 29.3914C49.4725 29.4177 49.463 29.4462 49.4557 29.4769C49.4403 29.5077 49.4319 29.5316 49.4319 29.5464C49.4319 29.5612 49.4283 29.576 49.4199 29.5908C49.4283 29.576 49.4343 29.5612 49.4379 29.5464C49.4426 29.5316 49.4522 29.5077 49.4677 29.4769C49.4916 29.4313 49.5155 29.3744 49.5394 29.3061C49.5561 29.2673 49.5717 29.2286 49.5884 29.191C49.6039 29.1534 49.6195 29.1147 49.6362 29.0771C49.6769 28.9939 49.7175 28.9028 49.7616 28.8082C49.8047 28.7137 49.8465 28.6123 49.8871 28.5052C49.935 28.3993 49.9851 28.2911 50.0365 28.1852C50.0879 28.0792 50.1381 27.9721 50.1859 27.8651C50.2898 27.6452 50.3902 27.4288 50.4858 27.2192C50.5814 27.0096 50.6687 26.8205 50.7487 26.6531C50.7893 26.5699 50.824 26.4947 50.8563 26.4298C50.8873 26.3649 50.9113 26.3068 50.928 26.2533ZM50.6292 27.2021C50.6448 27.1645 50.6567 27.1292 50.6651 27.0996C50.6722 27.0688 50.6842 27.0415 50.7009 27.0187C50.7165 26.9891 50.7296 26.9618 50.7368 26.939L50.7009 27.0085C50.6842 27.0301 50.6687 27.0586 50.6519 27.0927C50.6364 27.1269 50.6208 27.1645 50.6054 27.2021C50.5898 27.2397 50.5695 27.2796 50.5456 27.3217C50.5217 27.3639 50.4978 27.4117 50.4727 27.4641C50.4488 27.5097 50.4249 27.5575 50.4022 27.6076C50.3771 27.6578 50.3532 27.709 50.3305 27.7626C50.3066 27.8149 50.2827 27.8674 50.2576 27.9163C50.2337 27.9665 50.2134 28.0177 50.1978 28.0701C50.174 28.1168 50.1524 28.1613 50.1321 28.2091C50.1118 28.2535 50.0939 28.2956 50.0783 28.3333C50.0628 28.372 50.0509 28.4084 50.0437 28.4426C50.0353 28.4768 50.0234 28.5052 50.0066 28.5281C50.0234 28.5052 50.0389 28.4791 50.0545 28.4483C50.0712 28.4175 50.0867 28.3834 50.1023 28.3446C50.1178 28.3071 50.1381 28.2661 50.162 28.225C50.1859 28.1829 50.2098 28.135 50.2337 28.0826C50.2576 28.0371 50.2827 27.9892 50.3066 27.9391C50.3305 27.8901 50.3532 27.8378 50.3771 27.7842C50.4022 27.7329 50.4237 27.6782 50.4428 27.6247C50.4631 27.5712 50.4858 27.5211 50.5097 27.4755C50.5337 27.4231 50.5551 27.3742 50.5754 27.3274C50.5958 27.2819 50.6125 27.2397 50.6292 27.2021ZM50.8921 23.6003C50.9471 23.5479 51.0021 23.4978 51.0546 23.4522C51.106 23.4066 51.1562 23.3611 51.204 23.3155C51.2518 23.2699 51.2972 23.2255 51.3414 23.1834C51.3856 23.1412 51.4275 23.1014 51.4669 23.0637C51.5063 23.025 51.5422 22.9908 51.5744 22.9612C51.6055 22.9305 51.6294 22.9031 51.645 22.8815L51.7178 22.812C51.7095 22.812 51.7023 22.8154 51.694 22.8234C51.6701 22.8462 51.6509 22.8621 51.6342 22.8701C51.5936 22.8997 51.5266 22.9544 51.4311 23.0296C51.3905 23.0683 51.3462 23.1059 51.2996 23.1446C51.2518 23.1823 51.2004 23.2198 51.1431 23.2585C51.0965 23.3041 51.0451 23.3497 50.9937 23.3952C50.9423 23.4408 50.8873 23.4863 50.8323 23.5331C50.7774 23.5786 50.7236 23.6265 50.6711 23.6755C50.6185 23.7256 50.5695 23.7723 50.5217 23.8178C50.4643 23.8634 50.4153 23.9078 50.3723 23.95C50.3281 23.9921 50.2863 24.032 50.2457 24.0696C50.2062 24.1083 50.1716 24.1425 50.144 24.1733C50.1166 24.204 50.0903 24.2302 50.0664 24.2518C50.0509 24.2678 50.0413 24.2792 50.0365 24.2872C50.0329 24.2952 50.0269 24.3031 50.0186 24.3099C50.0269 24.3031 50.0353 24.2974 50.0437 24.2929C50.0509 24.2883 50.0628 24.2792 50.0783 24.2644C50.1023 24.2416 50.1321 24.2188 50.168 24.196C50.205 24.1733 50.2421 24.1425 50.2827 24.1037C50.3221 24.0662 50.3675 24.0286 50.4201 23.9898C50.4715 23.9523 50.5217 23.9101 50.5695 23.8634C50.6257 23.8258 50.6794 23.7837 50.7308 23.7392C50.7822 23.6926 50.836 23.647 50.8921 23.6003ZM52.1134 22.6639C52.1289 22.6491 52.1445 22.632 52.16 22.6127C52.1779 22.5933 52.1935 22.5762 52.209 22.5603L52.2448 22.5261C52.2281 22.5341 52.2126 22.5455 52.197 22.5603C52.1886 22.5682 52.1529 22.5956 52.0883 22.6411C52.0488 22.6799 52.0011 22.7209 51.9449 22.7665C51.8899 22.812 51.8302 22.8621 51.7656 22.9157C51.7095 22.9692 51.6545 23.0205 51.5984 23.0695C51.5422 23.1196 51.4956 23.1629 51.4549 23.2016C51.4394 23.2233 51.4239 23.2403 51.4072 23.2528C51.3905 23.2643 51.3749 23.2768 51.3594 23.2927L51.3235 23.3269C51.3307 23.3269 51.3426 23.3189 51.3594 23.3041C51.3749 23.2893 51.3928 23.2756 51.4132 23.2643C51.4322 23.2528 51.4549 23.2346 51.4789 23.2118C51.5195 23.1743 51.5673 23.1321 51.6223 23.0865C51.6784 23.041 51.7382 22.9954 51.8015 22.9498C51.8576 22.8963 51.9138 22.845 51.97 22.7949C52.025 22.7448 52.0728 22.7015 52.1134 22.6639Z" fill="#fff"/>
<path d="M58.4181 25.4981C58.4587 25.4297 58.522 25.4104 58.6104 25.4411C58.6989 25.4718 58.7849 25.5231 58.8686 25.596C58.9522 25.6678 59.0239 25.7464 59.0848 25.8295C59.1434 25.9138 59.1649 25.9742 59.1494 26.013C59.0454 26.2636 58.9044 26.5517 58.7252 26.8764C58.5447 27.201 58.3189 27.5086 58.0476 27.8013C57.7776 28.0952 57.4573 28.3436 57.0916 28.5452C56.7236 28.7479 56.3054 28.8482 55.8345 28.8482H55.721C55.6852 28.8482 55.6469 28.8447 55.6075 28.8368C55.439 29.0509 55.2669 29.2491 55.0865 29.4314C54.9072 29.6136 54.7232 29.772 54.5356 29.9052C54.348 30.0397 54.1592 30.1445 53.9668 30.2208C53.7768 30.2971 53.588 30.3347 53.4051 30.3347C53.3179 30.3347 53.1853 30.2948 53.0108 30.2151C52.8339 30.1342 52.6571 30.0192 52.4791 29.8711C52.2986 29.723 52.1421 29.5498 52.0118 29.3517C51.8804 29.1534 51.8135 28.9324 51.8135 28.6887C51.8135 28.4905 51.8565 28.2661 51.9389 28.02C52.0238 27.7717 52.1313 27.5211 52.2627 27.2705C52.393 27.0188 52.5436 26.775 52.7109 26.5381C52.8794 26.3034 53.0419 26.0927 53.2008 25.9104V25.6928C53.2008 25.4718 53.2809 25.2498 53.441 25.0242C53.6011 24.7998 53.7971 24.597 54.0266 24.4182C54.2584 24.2394 54.5081 24.0924 54.7746 23.9785C55.0423 23.8634 55.2801 23.8065 55.488 23.8065C55.5908 23.8065 55.721 23.8589 55.8764 23.9614C56.0317 24.064 56.1775 24.2109 56.3125 24.4023C56.4487 24.5914 56.5658 24.8203 56.6662 25.0869C56.7654 25.3534 56.8156 25.6507 56.8156 25.9788C56.8156 26.2601 56.7606 26.5711 56.6483 26.9105C56.536 27.25 56.3854 27.594 56.1931 27.9449C56.4571 27.8924 56.7021 27.7705 56.9291 27.5792C57.1574 27.3889 57.3617 27.1691 57.547 26.922C57.7286 26.6747 57.8923 26.4207 58.0369 26.161C58.1803 25.9024 58.3081 25.6815 58.4181 25.4981ZM52.5436 28.8254C52.5436 28.8026 52.552 28.7673 52.5675 28.7229C52.5675 28.7001 52.5759 28.6647 52.5914 28.6192C52.6069 28.5816 52.6213 28.5406 52.6332 28.4996C52.6451 28.4586 52.6595 28.4176 52.6762 28.3788C52.6918 28.3037 52.7228 28.2239 52.7706 28.1397C52.7874 28.1009 52.8029 28.0668 52.8184 28.0371C52.8339 28.0063 52.8507 27.9722 52.8663 27.9334C52.883 27.9039 52.8925 27.8765 52.8961 27.8526C52.8997 27.831 52.9116 27.8104 52.926 27.7956C52.9343 27.774 52.9463 27.7546 52.9618 27.7398C52.9534 27.7546 52.9427 27.774 52.926 27.7956C52.9116 27.8104 52.8961 27.831 52.8842 27.8526C52.8722 27.8765 52.859 27.8993 52.8435 27.9232C52.8029 27.9836 52.7658 28.052 52.7348 28.1282C52.7192 28.1659 52.7013 28.2046 52.6822 28.2421C52.6607 28.2798 52.644 28.3185 52.6284 28.356C52.6129 28.3948 52.5997 28.4369 52.5914 28.4825C52.583 28.5281 52.571 28.5702 52.5556 28.6078C52.5388 28.6534 52.5304 28.6921 52.5304 28.7229C52.5304 28.7376 52.5293 28.7547 52.5256 28.7741C52.5221 28.7935 52.5197 28.8105 52.5197 28.8254C52.5113 28.863 52.5077 28.8937 52.5077 28.9165V29.0418V29.0316C52.5077 29.0236 52.5101 29.0179 52.5137 29.0145C52.5173 29.0099 52.5197 29.0008 52.5197 28.9849C52.5197 28.9632 52.5221 28.9393 52.5256 28.9165C52.5293 28.8937 52.5353 28.863 52.5436 28.8254ZM52.6392 28.8482C52.6475 28.8105 52.6547 28.7741 52.6631 28.74C52.6703 28.7058 52.6846 28.6682 52.7001 28.6306C52.7228 28.5554 52.7539 28.4745 52.7945 28.3902L52.8663 28.2536C52.8746 28.2239 52.8949 28.1772 52.926 28.1169C52.9499 28.0701 52.9762 28.0257 53.0048 27.979C53.0324 27.9334 53.0586 27.8879 53.0825 27.8412L53.2606 27.5667C53.2928 27.5211 53.3251 27.4778 53.3574 27.4368C53.3896 27.3947 53.4207 27.3548 53.453 27.316L53.4171 27.2136L53.3813 27.2477C53.349 27.2933 53.3179 27.3377 53.2857 27.3798C53.2534 27.4208 53.2211 27.4687 53.1889 27.5211L53.0108 27.7956C52.9786 27.8492 52.9499 27.8993 52.926 27.9449C52.9033 27.9915 52.8794 28.0371 52.8555 28.0827C52.8387 28.1134 52.8268 28.1397 52.8184 28.1613C52.8101 28.1852 52.8029 28.2091 52.7945 28.2308C52.779 28.2536 52.7695 28.2763 52.7647 28.3002C52.7599 28.3219 52.7503 28.3447 52.7348 28.3675C52.7192 28.4142 52.7061 28.4586 52.6941 28.4996C52.6822 28.5406 52.6667 28.5816 52.6511 28.6192C52.644 28.65 52.632 28.6887 52.6165 28.7343C52.6165 28.7491 52.6141 28.7673 52.6105 28.7912C52.6045 28.814 52.6033 28.8333 52.6033 28.8482C52.5878 28.9233 52.5794 28.9814 52.5794 29.0202C52.571 29.0418 52.5699 29.0634 52.5735 29.0828C52.5783 29.1021 52.5794 29.1192 52.5794 29.1341C52.5878 29.1113 52.5914 29.0726 52.5914 29.0202C52.5997 28.9974 52.6045 28.9723 52.6105 28.945C52.6141 28.9176 52.6237 28.8858 52.6392 28.8482ZM52.7228 29.3619C53.018 29.3619 53.3096 29.2844 53.5963 29.1284C53.8832 28.9723 54.1544 28.7639 54.4101 28.5053C54.1795 28.3755 53.9895 28.2182 53.8413 28.0314C53.6944 27.8434 53.5772 27.6453 53.4888 27.43C53.2809 27.6976 53.1016 27.995 52.9499 28.3219C52.7981 28.65 52.7228 28.9974 52.7228 29.3619ZM53.8234 27.0301C53.8078 27.2739 53.876 27.4892 54.0266 27.676C54.1795 27.8628 54.446 27.9836 54.8296 28.0371C55.0208 27.7922 55.1976 27.5336 55.3625 27.2591C55.5251 26.9846 55.6636 26.7123 55.7748 26.4412C55.8871 26.1713 55.9743 25.9104 56.0377 25.6586C56.101 25.4069 56.1333 25.1825 56.1333 24.9843C56.1333 24.8089 56.0616 24.7223 55.9182 24.7223C55.6876 24.7223 55.4366 24.8157 55.1701 25.0071C54.9036 25.1973 54.6563 25.4297 54.4341 25.7031C54.5225 25.8193 54.5858 25.9309 54.6253 26.0414C54.6659 26.1519 54.6659 26.2271 54.6253 26.2636C54.5858 26.2954 54.4902 26.3775 54.3384 26.5107C54.1867 26.644 54.0158 26.8172 53.8234 27.0301ZM54.3623 28.6773C54.3862 28.6614 54.4077 28.642 54.4281 28.6192C54.4472 28.5964 54.4711 28.5736 54.495 28.5508C54.4866 28.5508 54.483 28.5497 54.483 28.5452C54.483 28.5406 54.4782 28.5395 54.4711 28.5395L54.3384 28.6647C54.299 28.6955 54.2643 28.7263 54.2369 28.757C54.2094 28.7878 54.1795 28.814 54.1472 28.8368C54.115 28.8675 54.0851 28.8914 54.0564 28.9108C54.029 28.9302 54.0074 28.9472 53.9907 28.9632C53.9668 28.9849 53.9465 29.0031 53.931 29.0145C53.9154 29.0259 53.8999 29.0384 53.8832 29.0543C53.8676 29.0691 53.8557 29.0771 53.8485 29.0771L53.9907 28.9746C54.0158 28.9587 54.0409 28.9393 54.0696 28.9165C54.0971 28.8937 54.1269 28.871 54.1592 28.8482C54.1902 28.8254 54.2225 28.8003 54.2536 28.7741C54.2859 28.7479 54.3217 28.716 54.3623 28.6773ZM53.8951 26.6873C53.8867 26.7101 53.8819 26.7305 53.8772 26.7499C53.8736 26.7693 53.8676 26.791 53.8605 26.8126C53.8915 26.775 53.9214 26.7408 53.9489 26.7101C53.9776 26.6804 54.0074 26.6497 54.0397 26.6189C54.072 26.5893 54.1018 26.5586 54.1293 26.5335C54.1568 26.5062 54.1831 26.4777 54.207 26.4469L54.3265 26.333L54.446 26.2191C54.4376 26.2271 54.4257 26.2339 54.4101 26.2419C54.3946 26.2488 54.3779 26.259 54.3623 26.2692C54.3456 26.2807 54.33 26.2954 54.3146 26.3102C54.2751 26.3478 54.2297 26.3888 54.1771 26.4298C54.1245 26.472 54.0672 26.5233 54.0038 26.5847L53.8951 26.6873ZM54.0266 24.7337C54.0038 24.7554 53.9811 24.7759 53.962 24.7907C53.9417 24.8055 53.9226 24.8203 53.907 24.8362L53.8724 24.8704H53.8832L53.919 24.8362C53.9357 24.8203 53.9525 24.8055 53.974 24.7907C53.9931 24.7759 54.0158 24.7588 54.0397 24.744C54.0636 24.7292 54.0887 24.7121 54.1174 24.6927C54.1448 24.6734 54.1795 24.6517 54.2189 24.6301C54.25 24.6062 54.2799 24.5834 54.3086 24.5617C54.336 24.5378 54.3707 24.5196 54.4101 24.5047C54.4496 24.482 54.4866 24.4592 54.5177 24.4364C54.5499 24.4125 54.5822 24.3943 54.6133 24.3783C54.6527 24.3635 54.6873 24.3453 54.7149 24.327C54.7424 24.3088 54.7734 24.2906 54.8057 24.2758C54.869 24.245 54.9132 24.2223 54.9371 24.2075L54.9849 24.1847V24.1733C54.9694 24.1801 54.9491 24.1881 54.9252 24.1961C54.9012 24.204 54.8571 24.2223 54.7937 24.2519C54.7292 24.2827 54.6635 24.3157 54.5966 24.3498C54.5285 24.384 54.4579 24.425 54.3862 24.4695C54.3217 24.5082 54.2584 24.5515 54.195 24.6005C54.1305 24.6506 54.0755 24.695 54.0266 24.7337ZM54.1353 24.5162C54.1185 24.523 54.1114 24.5287 54.1114 24.5321C54.1114 24.5366 54.1066 24.5412 54.0994 24.5504L54.0875 24.5617C54.1031 24.5537 54.1234 24.5412 54.1472 24.5264C54.1628 24.5116 54.1831 24.4991 54.207 24.4877C54.2309 24.4752 54.2584 24.4592 54.2906 24.4364C54.33 24.4216 54.3671 24.4023 54.3982 24.3783C54.4304 24.3556 54.4663 24.3328 54.5069 24.31C54.5225 24.2952 54.5416 24.2827 54.5667 24.2758C54.5906 24.2678 54.6097 24.2565 54.6253 24.2417C54.6491 24.2257 54.6718 24.2166 54.6921 24.2131C54.7113 24.2098 54.734 24.2006 54.7579 24.1847C54.7818 24.1699 54.8248 24.146 54.8882 24.1163C54.9288 24.1004 54.9694 24.081 55.0088 24.0582C55.0483 24.0434 55.0889 24.0298 55.1283 24.0195C55.1689 24.007 55.2048 23.9933 55.2359 23.9785C55.2849 23.9637 55.3159 23.9557 55.3315 23.9557C55.347 23.9478 55.3625 23.9443 55.3745 23.9443C55.3853 23.9443 55.3996 23.9409 55.4151 23.933H55.4641C55.4713 23.933 55.4748 23.9295 55.4748 23.9215H55.3315C55.2849 23.9215 55.2478 23.9261 55.2239 23.933C55.2084 23.933 55.1689 23.9409 55.1044 23.9557C55.0889 23.9637 55.0686 23.9694 55.0435 23.9728C55.0208 23.9762 55.0004 23.9831 54.9849 23.9899C54.9371 24.0047 54.8917 24.0229 54.8475 24.0411C54.8033 24.0605 54.7579 24.081 54.7101 24.1038C54.6694 24.1277 54.6276 24.1494 54.5846 24.1733C54.5404 24.196 54.4985 24.2223 54.4579 24.2519C54.3862 24.2986 54.3217 24.3476 54.2667 24.4023C54.195 24.4546 54.1508 24.4934 54.1353 24.5162ZM55.5824 27.111C55.5992 27.0802 55.6123 27.0507 55.6254 27.0244C55.6362 26.9982 55.6517 26.9698 55.6672 26.9391C55.6995 26.8866 55.727 26.8342 55.7509 26.7841C55.7748 26.7352 55.7987 26.6839 55.8226 26.6315C55.8381 26.5779 55.8572 26.5267 55.8824 26.4811C55.9062 26.4356 55.9265 26.39 55.9421 26.3444C55.9983 26.161 56.046 26.013 56.0855 25.8979C56.101 25.8375 56.1142 25.7988 56.1225 25.784C56.1142 25.7988 56.1058 25.817 56.0974 25.8352C56.0903 25.8557 56.0819 25.8763 56.0736 25.8979C56.0568 25.9526 56.0353 26.0163 56.0078 26.0927C55.9803 26.169 55.9457 26.2488 55.9062 26.333C55.8907 26.3786 55.8716 26.4241 55.8524 26.4697C55.8321 26.5164 55.8094 26.5654 55.7867 26.6189C55.7628 26.6725 55.739 26.7237 55.715 26.7727C55.6912 26.8228 55.6636 26.8752 55.6302 26.9276C55.6075 26.9812 55.5788 27.0336 55.5465 27.0871C55.531 27.1179 55.5167 27.1475 55.5059 27.1737C55.494 27.201 55.4797 27.2249 55.4641 27.2477C55.4235 27.3092 55.3876 27.3639 55.3566 27.4129C55.3243 27.463 55.292 27.5177 55.2598 27.5792C55.2203 27.6327 55.1821 27.684 55.1462 27.7341C55.1104 27.7831 55.0721 27.8343 55.0327 27.8879C55.016 27.9186 54.9969 27.9449 54.973 27.9676C54.9491 27.9915 54.9288 28.0178 54.9132 28.0485H54.961L55.0686 27.9107C55.108 27.8572 55.1462 27.8059 55.1821 27.7569C55.2179 27.7068 55.2562 27.6555 55.2956 27.602C55.335 27.5416 55.3721 27.4858 55.4032 27.4368C55.4354 27.3867 55.4677 27.3309 55.4988 27.2705C55.5143 27.2398 55.5286 27.2136 55.5406 27.1908C55.5537 27.168 55.5668 27.1407 55.5824 27.111ZM56.0736 26.2749C56.0903 26.2146 56.107 26.1553 56.1273 26.0995C56.1464 26.0414 56.1655 25.9822 56.1811 25.9218C56.1966 25.8603 56.211 25.8011 56.2229 25.7441C56.2348 25.6872 56.2456 25.6325 56.254 25.5789C56.2695 25.5174 56.2791 25.4605 56.2838 25.4069C56.2875 25.3534 56.2934 25.3033 56.3006 25.2589V24.949V24.973C56.3006 24.9809 56.2994 24.99 56.2946 25.0014C56.291 25.0117 56.2886 25.0265 56.2886 25.0413C56.2886 25.0641 56.2875 25.0949 56.2838 25.1324C56.2791 25.1711 56.2731 25.2133 56.2648 25.2589C56.2575 25.3033 56.2516 25.3523 56.2468 25.4012C56.2432 25.4514 56.2325 25.506 56.2169 25.5676C56.2014 25.6279 56.1871 25.6849 56.1751 25.7384C56.1631 25.792 56.1488 25.8501 56.1333 25.9104C56.1177 25.9708 56.101 26.03 56.0855 26.087C56.07 26.1439 56.0533 26.2031 56.0377 26.2636C56.0222 26.3182 56.0042 26.3683 55.9839 26.4185C55.9648 26.4675 55.9457 26.5118 55.9302 26.5495C55.9146 26.5962 55.9003 26.636 55.8883 26.6702C55.8764 26.7044 55.8621 26.7328 55.8465 26.7556C55.8381 26.7784 55.8345 26.7978 55.8345 26.8126C55.8345 26.8205 55.8297 26.8274 55.8226 26.8365L55.8572 26.767C55.874 26.7443 55.8907 26.7157 55.9062 26.6827C55.9218 26.6474 55.9373 26.6075 55.954 26.5608C55.9696 26.5233 55.9899 26.48 56.0138 26.4298C56.0377 26.3809 56.0568 26.3296 56.0736 26.2749Z" fill="#fff"/>
<path d="M63.2528 26.4468C63.2851 26.3933 63.3448 26.3899 63.4321 26.4355C63.5205 26.481 63.6101 26.5459 63.7021 26.6314C63.7929 26.7134 63.867 26.8056 63.9232 26.9048C63.9794 27.0039 63.9949 27.0802 63.971 27.1326C63.8192 27.423 63.6197 27.7534 63.3723 28.1225C63.1249 28.4927 62.8525 28.8401 62.5538 29.1681C62.2538 29.4962 61.9384 29.7719 61.6074 29.9963C61.2764 30.2218 60.9549 30.3346 60.6442 30.3346C60.5319 30.3346 60.4112 30.2947 60.2798 30.215C60.1483 30.1341 60.0264 30.0396 59.9153 29.9291C59.803 29.8186 59.7062 29.7013 59.6273 29.5794C59.5472 29.4575 59.5078 29.3516 59.5078 29.2593C59.5078 29.077 59.5615 28.8515 59.6691 28.5849C59.7767 28.3184 59.9129 28.0291 60.0754 27.7158C60.2391 27.4037 60.4124 27.0779 60.5964 26.7384C60.7804 26.399 60.9429 26.0698 61.0863 25.7497C60.4566 26.3523 59.9129 26.9275 59.454 27.4755C58.9951 28.0256 58.6127 28.5109 58.3057 28.9335C57.9985 29.3572 57.7619 29.6933 57.5994 29.9462C57.4357 30.1979 57.3341 30.3232 57.2935 30.3232C57.2469 30.3232 57.1824 30.2993 57.1023 30.248C57.0222 30.2002 56.9446 30.1341 56.8693 30.0544C56.794 29.9735 56.7271 29.8846 56.6721 29.7855C56.616 29.6864 56.5885 29.5874 56.5885 29.4883C56.5885 29.4267 56.6494 29.2536 56.7737 28.9688C56.8968 28.6829 57.0533 28.3435 57.241 27.9504C57.4273 27.5575 57.6293 27.1371 57.8444 26.6872C58.0607 26.2372 58.2614 25.8146 58.4491 25.4182C58.6367 25.0219 58.792 24.6813 58.9151 24.3965C59.0394 24.1106 59.1015 23.9294 59.1015 23.852C59.1015 23.8372 59.1051 23.8223 59.1134 23.8064C59.129 23.7688 59.1612 23.7506 59.2079 23.7506C59.2712 23.7506 59.3453 23.7688 59.4301 23.8064C59.5138 23.8452 59.5962 23.8952 59.6751 23.9556C59.7551 24.0171 59.8209 24.0912 59.8735 24.1789C59.9249 24.2666 59.9511 24.3555 59.9511 24.4477C59.9511 24.4933 59.9272 24.5878 59.8795 24.7336C59.8304 24.8783 59.7647 25.0514 59.681 25.253C59.5974 25.4547 59.5042 25.6745 59.4003 25.916C59.2963 26.1552 59.1888 26.4013 59.0776 26.653C59.3238 26.3705 59.5819 26.0835 59.8495 25.7896C60.116 25.4968 60.3646 25.2235 60.5964 24.9729C60.8271 24.7223 61.0314 24.5081 61.2071 24.3327C61.3827 24.1572 61.5022 24.0513 61.5655 24.0137C61.5739 24.0137 61.5799 24.0103 61.5835 24.0069C61.5882 24.0035 61.593 24.0012 61.6014 24.0012C61.6098 24.0012 61.6169 24.0046 61.6253 24.0137C61.6492 24.0137 61.6647 24.0171 61.6743 24.024C61.7209 24.0468 61.783 24.0866 61.8583 24.1436C61.9348 24.2017 62.0089 24.2734 62.0806 24.3611C62.1523 24.4488 62.2132 24.5536 62.2658 24.6755C62.3172 24.7974 62.3435 24.9341 62.3435 25.0868C62.3435 25.2007 62.2992 25.3669 62.212 25.5845C62.1236 25.801 62.016 26.0413 61.8882 26.3056C61.7615 26.5676 61.6193 26.8455 61.464 27.1383C61.3086 27.4322 61.1664 27.7124 61.0397 27.979C60.9119 28.2455 60.8031 28.4881 60.7159 28.7057C60.6275 28.9221 60.5845 29.0884 60.5845 29.2023C60.7769 29.2023 60.986 29.126 61.213 28.9745C61.44 28.8219 61.6719 28.6157 61.9061 28.3559C62.1427 28.0974 62.3757 27.8035 62.6064 27.4755C62.8382 27.1485 63.0533 26.8056 63.2528 26.4468ZM58.5494 27.1109C58.59 27.0335 58.6271 26.9583 58.6593 26.882C58.6904 26.8056 58.7263 26.7293 58.7669 26.653C58.8051 26.5698 58.841 26.489 58.8732 26.4138C58.9055 26.3364 58.9414 26.26 58.9808 26.1837C59.013 26.1085 59.043 26.0356 59.0716 25.9673C59.0991 25.8978 59.1254 25.834 59.1493 25.7725C59.1732 25.711 59.1935 25.6586 59.2138 25.6119C59.2342 25.5675 59.2521 25.5265 59.2676 25.4866C59.2759 25.4717 59.2796 25.4581 59.2796 25.4467C59.2796 25.4365 59.2831 25.4216 59.2927 25.4068C59.2927 25.3909 59.2963 25.3795 59.3046 25.3727L58.7299 26.6314C58.6593 26.7909 58.5876 26.9446 58.5195 27.0927C58.4526 27.2408 58.3917 27.3775 58.3355 27.4982C58.3033 27.5597 58.277 27.6133 58.2579 27.66C58.2376 27.7055 58.2196 27.7477 58.2041 27.7842C58.179 27.8229 58.1635 27.8571 58.1563 27.8878C58.1718 27.8571 58.1921 27.8229 58.216 27.7842L58.3594 27.5096C58.3917 27.4493 58.4204 27.3866 58.4491 27.3217C58.4765 27.2579 58.51 27.1861 58.5494 27.1109ZM58.9581 26.5266C58.9581 26.5197 58.9617 26.5117 58.97 26.5049C58.9772 26.4969 58.9808 26.4867 58.9808 26.4753C58.9808 26.4639 58.9892 26.4503 59.0047 26.4355C59.0441 26.3751 59.0895 26.2908 59.1374 26.1837C59.1684 26.1313 59.1983 26.0743 59.227 26.0129C59.2545 25.9525 59.2831 25.891 59.3154 25.8294C59.3476 25.7623 59.38 25.6927 59.411 25.6244C59.4444 25.5561 59.4755 25.482 59.5078 25.4068C59.5401 25.3385 59.5675 25.2679 59.5915 25.195C59.6153 25.1232 59.6392 25.0526 59.6631 24.9842C59.687 24.9148 59.7086 24.8487 59.7289 24.7849C59.7492 24.72 59.7671 24.6596 59.7838 24.6061C59.8077 24.4933 59.8185 24.3976 59.8185 24.3213V24.2757C59.8185 24.2598 59.8149 24.2484 59.8077 24.2416C59.7994 24.2336 59.7958 24.2256 59.7958 24.2188L59.8077 24.2416V24.3213C59.7994 24.3361 59.7958 24.3532 59.7958 24.3726C59.7958 24.3919 59.791 24.4124 59.7838 24.4363C59.7671 24.4591 59.7575 24.4842 59.7527 24.5104C59.7492 24.5366 59.7432 24.5616 59.7348 24.5833C59.7193 24.6448 59.6966 24.7074 59.6691 24.7667C59.6404 24.8271 59.6153 24.892 59.5915 24.9614C59.5592 25.0219 59.5293 25.089 59.5018 25.1608C59.4731 25.2337 59.4444 25.3032 59.411 25.3727C59.38 25.449 59.35 25.5207 59.3213 25.5903C59.2951 25.6586 59.2676 25.7269 59.2449 25.7953C59.2115 25.8648 59.1839 25.9285 59.1612 25.989C59.1374 26.0504 59.1134 26.1085 59.0895 26.1609C59.0728 26.2224 59.0573 26.2737 59.0406 26.317C59.025 26.3568 59.0095 26.3933 58.994 26.424L58.9581 26.5266ZM59.9153 28.4027C59.9547 28.3332 59.9882 28.2626 60.0169 28.1908C60.0431 28.119 60.0778 28.0484 60.1184 27.979C60.1578 27.9038 60.1937 27.8309 60.2248 27.7625C60.257 27.693 60.2941 27.6246 60.3323 27.5564C60.3969 27.4037 60.4566 27.2818 60.5127 27.1907C60.5367 27.1291 60.557 27.0779 60.5737 27.0358C60.5881 26.9948 60.6036 26.9583 60.6203 26.9275C60.6275 26.9048 60.6406 26.8785 60.6562 26.8478C60.6406 26.8638 60.6239 26.8865 60.6084 26.9162C60.5928 26.9469 60.5737 26.9833 60.5498 27.0243C60.5247 27.0654 60.496 27.1143 60.465 27.1679C60.4327 27.2203 60.4004 27.2772 60.3693 27.3388C60.3359 27.4003 60.3012 27.4606 60.2618 27.521C60.2212 27.5905 60.1841 27.66 60.1483 27.7272C60.1113 27.7955 60.0742 27.8684 60.0336 27.9448C60.0013 28.0142 59.9702 28.0849 59.938 28.1555C59.9057 28.2296 59.8746 28.3001 59.8424 28.3674C59.8268 28.4061 59.8125 28.4414 59.8017 28.471C59.7898 28.5018 59.7743 28.5314 59.7587 28.5622C59.7432 28.6009 59.7313 28.6339 59.7229 28.6646C59.7157 28.6954 59.7062 28.7262 59.699 28.7569C59.6751 28.8184 59.6631 28.8709 59.6631 28.9164C59.6559 28.9392 59.65 28.9609 59.6464 28.9802C59.6404 28.9996 59.6392 29.0201 59.6392 29.0417V29.1442L59.6524 29.1226C59.6524 29.093 59.6559 29.0656 59.6631 29.0417C59.6786 28.9586 59.7062 28.8674 59.7468 28.7672C59.7707 28.708 59.797 28.6465 59.8244 28.5849C59.8531 28.5246 59.883 28.463 59.9153 28.4027ZM61.1831 30.117C61.2071 30.1022 61.2285 30.092 61.2488 30.0886C61.2692 30.0851 61.2871 30.0749 61.3026 30.0601C61.3182 30.0521 61.3349 30.0407 61.3505 30.0248L61.3026 30.0487C61.2548 30.0646 61.2106 30.0794 61.1712 30.0942C61.0672 30.1398 60.9394 30.1706 60.7876 30.1854H60.6801C60.6645 30.1854 60.6466 30.1831 60.6263 30.1797C60.6072 30.1762 60.5881 30.174 60.5737 30.174C60.5092 30.1671 60.4482 30.1478 60.3933 30.117L60.3204 30.0829C60.3049 30.0829 60.2893 30.0749 60.2726 30.0601C60.257 30.0601 60.2499 30.0578 60.2499 30.0544C60.2499 30.0498 60.2463 30.0487 60.2367 30.0487C60.2295 30.0487 60.2248 30.0452 60.2248 30.0373L60.2618 30.0715C60.2773 30.0794 60.2941 30.0909 60.3096 30.1068L60.3813 30.1398C60.404 30.1546 60.4303 30.1683 60.459 30.1797C60.4864 30.1922 60.5211 30.2013 60.5605 30.2093C60.5773 30.2161 60.594 30.2207 60.6143 30.2207C60.6346 30.2207 60.6526 30.2241 60.6681 30.2309H60.7876C60.827 30.2309 60.8641 30.2275 60.8951 30.2207C60.9274 30.2127 60.9632 30.2013 61.0039 30.1854C61.0446 30.1785 61.0768 30.1683 61.1055 30.158C61.133 30.1455 61.158 30.133 61.1831 30.117ZM61.1473 26.0812C61.0589 26.2635 60.9513 26.4696 60.8234 26.6986C60.7912 26.7601 60.7613 26.8171 60.7338 26.8706C60.7052 26.9241 60.6801 26.9811 60.6562 27.0414C60.6239 27.095 60.5976 27.1474 60.5785 27.1964C60.5582 27.2465 60.5367 27.2932 60.5128 27.3388C60.4961 27.3855 60.4805 27.4242 60.465 27.4584C60.4482 27.4937 60.4363 27.5267 60.4279 27.5564C60.4124 27.5871 60.404 27.6133 60.404 27.6372C60.4124 27.6133 60.4243 27.5871 60.441 27.5564C60.4566 27.5335 60.471 27.5039 60.4829 27.4697C60.4948 27.4367 60.5128 27.3968 60.5367 27.3501C60.5845 27.267 60.6346 27.169 60.6873 27.0585C60.7374 26.9481 60.796 26.8364 60.8593 26.7214C60.8916 26.661 60.9215 26.604 60.9501 26.5494C60.9776 26.4969 61.0039 26.4435 61.0278 26.3899C61.0589 26.3295 61.0863 26.2737 61.1103 26.2247C61.1341 26.1746 61.1544 26.1313 61.1712 26.0926C61.1867 26.055 61.2034 26.0162 61.219 25.9787C61.2345 25.9411 61.2512 25.9069 61.2668 25.8762C61.2823 25.8454 61.2943 25.8192 61.3026 25.7953C61.2871 25.8192 61.2715 25.8454 61.2548 25.8762C61.2381 25.8978 61.2226 25.9285 61.2071 25.9673C61.1903 26.0049 61.1712 26.0436 61.1473 26.0812Z" fill="#fff"/>
<path d="M49.6613 12.4792C48.9838 13.0192 48.0158 13.2902 46.7575 13.2902H44.3461V17.2646H41.9418V6.20959H46.9141C48.06 6.20959 48.9742 6.49438 49.6565 7.06506C50.3377 7.63463 50.6782 8.5174 50.6782 9.71235C50.6782 11.0166 50.3388 11.9393 49.6613 12.4792ZM47.8151 8.49692C47.508 8.25197 47.079 8.12897 46.5269 8.12897H44.3461V11.3845H46.5269C47.079 11.3845 47.508 11.2524 47.8151 10.987C48.121 10.7227 48.2739 10.3024 48.2739 9.72711C48.2739 9.15188 48.121 8.74182 47.8151 8.49692Z" fill="#fff"/>
<path d="M55.8297 12.2924C56.2468 12.2422 56.5455 12.1796 56.7247 12.1044C57.0462 11.9746 57.2075 11.7729 57.2075 11.4973C57.2075 11.1624 57.0844 10.9311 56.8371 10.8024C56.5909 10.676 56.2276 10.6122 55.7508 10.6122C55.2143 10.6122 54.8343 10.7375 54.6108 10.9869C54.4519 11.1726 54.3455 11.4221 54.293 11.7376H52.1324C52.1791 11.0222 52.3894 10.4345 52.7634 9.9743C53.3573 9.25437 54.379 8.89441 55.8249 8.89441C56.7666 8.89441 57.6031 9.07212 58.3344 9.42753C59.0645 9.78178 59.4313 10.4527 59.4313 11.4369V15.1868C59.4313 15.4476 59.4361 15.7621 59.4469 16.1323C59.4624 16.4125 59.5067 16.6027 59.5808 16.7018C59.6536 16.8021 59.7636 16.8852 59.9105 16.949V17.2645H57.4752C57.4071 17.0994 57.3593 16.9444 57.333 16.7998C57.3079 16.6551 57.2864 16.4899 57.2709 16.3043C56.9602 16.6243 56.6017 16.8978 56.1954 17.1221C55.7102 17.3876 55.1629 17.5197 54.5523 17.5197C53.772 17.5197 53.1279 17.3078 52.6188 16.8863C52.111 16.4637 51.8564 15.8646 51.8564 15.09C51.8564 14.0841 52.2663 13.3574 53.0836 12.9075C53.5318 12.6625 54.1926 12.4872 55.0625 12.3824L55.8297 12.2924ZM57.2004 13.2902C57.057 13.3745 56.9112 13.4428 56.7654 13.4953C56.6196 13.5488 56.4188 13.5966 56.1643 13.6422L55.6553 13.7322C55.1761 13.8119 54.8331 13.9099 54.6252 14.0249C54.2727 14.2197 54.0958 14.5227 54.0958 14.9328C54.0958 15.2973 54.2034 15.5615 54.4196 15.7233C54.6347 15.8862 54.8976 15.9671 55.2047 15.9671C55.6947 15.9671 56.1452 15.8327 56.5575 15.5627C56.9697 15.2916 57.1836 14.7995 57.2004 14.0841L57.2004 13.2902Z" fill="#fff"/>
<path d="M63.1238 14.655C63.1716 15.0354 63.2744 15.3054 63.4321 15.4648C63.7106 15.7496 64.2268 15.892 64.9796 15.892C65.4218 15.892 65.7719 15.8305 66.0336 15.7052C66.2929 15.5799 66.4243 15.3919 66.4243 15.1425C66.4243 14.9021 66.3191 14.7199 66.1089 14.5945C65.8997 14.4704 65.1182 14.2551 63.7667 13.9498C62.7928 13.7197 62.1069 13.4327 61.7101 13.0876C61.3123 12.7481 61.1127 12.2571 61.1127 11.617C61.1127 10.8618 61.4234 10.2136 62.046 9.67134C62.6673 9.12918 63.5432 8.85693 64.6713 8.85693C65.742 8.85693 66.6155 9.06083 67.2895 9.46861C67.9634 9.8764 68.3507 10.5792 68.451 11.5793H66.2116C66.1806 11.3048 66.0993 11.0873 65.9667 10.9267C65.7205 10.6373 65.2998 10.4926 64.7072 10.4926C64.2184 10.4926 63.8707 10.5644 63.6628 10.7102C63.4548 10.8549 63.352 11.0246 63.352 11.2194C63.352 11.4654 63.462 11.642 63.6819 11.7525C63.9041 11.8676 64.6832 12.0646 66.0216 12.3448C66.9119 12.5453 67.5823 12.8472 68.0268 13.2516C68.4665 13.6628 68.6864 14.1742 68.6864 14.7893C68.6864 15.5992 68.371 16.2611 67.7376 16.7737C67.1055 17.2851 66.1279 17.5425 64.8051 17.5425C63.456 17.5425 62.4606 17.2703 61.8177 16.7281C61.1748 16.187 60.8534 15.4944 60.8534 14.655H63.1238Z" fill="#fff"/>
<path d="M80.2371 9.22136C80.641 9.4389 80.9684 9.73961 81.2194 10.1246V6.22437H83.4898V17.2645H81.3138V16.1323C80.9935 16.6175 80.629 16.9695 80.2215 17.1905C79.8128 17.4092 79.305 17.5197 78.6967 17.5197C77.6966 17.5197 76.8541 17.1336 76.1706 16.3612C75.487 15.5889 75.1453 14.5968 75.1453 13.387C75.1453 11.9917 75.4823 10.8947 76.155 10.095C76.8278 9.29426 77.7288 8.8944 78.8533 8.8944C79.3719 8.8944 79.8331 9.00265 80.2371 9.22136ZM80.7867 15.0444C81.1166 14.5944 81.2827 14.0124 81.2827 13.297C81.2827 12.2969 81.0174 11.5827 80.488 11.1521C80.1642 10.8924 79.7854 10.7625 79.3563 10.7625C78.7015 10.7625 78.2212 10.9983 77.914 11.4711C77.6093 11.9438 77.4552 12.5293 77.4552 13.2298C77.4552 13.985 77.6117 14.5888 77.9236 15.041C78.2355 15.4932 78.7075 15.7199 79.3409 15.7199C79.9742 15.7199 80.457 15.4944 80.7867 15.0444Z" fill="#fff"/>
<path d="M91.1053 9.25558C91.7027 9.51074 92.1963 9.91403 92.5858 10.4642C92.936 10.9506 93.1642 11.5144 93.2682 12.1546C93.3279 12.5305 93.353 13.0705 93.3422 13.7767H87.1033C87.1391 14.5969 87.4367 15.1721 87.9995 15.5024C88.3413 15.7074 88.7536 15.81 89.2351 15.81C89.7454 15.81 90.1576 15.6847 90.4779 15.4353C90.6512 15.2997 90.8053 15.1118 90.9392 14.8714H93.2251C93.1642 15.3578 92.8881 15.8499 92.3946 16.3499C91.6263 17.145 90.5532 17.5426 89.173 17.5426C88.033 17.5426 87.0269 17.2077 86.1557 16.5367C85.2846 15.8658 84.8496 14.7745 84.8496 13.2641C84.8496 11.8471 85.2415 10.7615 86.0278 10.0051C86.8153 9.24992 87.8358 8.8717 89.0905 8.8717C89.8362 8.8717 90.5078 8.99931 91.1053 9.25558ZM87.7558 11.1021C87.4391 11.4131 87.2407 11.8345 87.1594 12.3676H91.0168C90.975 11.8003 90.7767 11.3698 90.4205 11.0759C90.0644 10.782 89.6199 10.6351 89.0918 10.6351C88.5182 10.6351 88.0724 10.7911 87.7558 11.1021Z" fill="#fff"/>
<path d="M101.527 7.36468C102.46 6.4545 103.645 6 105.086 6C107.015 6 108.424 6.60941 109.317 7.82939C109.808 8.51514 110.072 9.20205 110.109 9.89229H107.689C107.535 9.36261 107.338 8.96165 107.095 8.69173C106.665 8.21215 106.026 7.97181 105.18 7.97181C104.317 7.97181 103.637 8.31124 103.14 8.989C102.642 9.66565 102.393 10.6248 102.393 11.8653C102.393 13.1046 102.655 14.0341 103.18 14.6503C103.706 15.2689 104.373 15.5776 105.183 15.5776C106.013 15.5776 106.646 15.3122 107.081 14.7825C107.321 14.4977 107.522 14.0694 107.681 13.4999H110.085C109.878 14.705 109.348 15.6847 108.496 16.4399C107.644 17.1951 106.552 17.5721 105.219 17.5721C103.571 17.5721 102.276 17.0618 101.332 16.0423C100.389 15.0172 99.9182 13.6127 99.9182 11.8265C99.9182 9.8969 100.455 8.40922 101.527 7.36468Z" fill="#fff"/>
<path d="M115.252 12.2924C115.669 12.2422 115.968 12.1796 116.147 12.1044C116.469 11.9746 116.63 11.7729 116.63 11.4973C116.63 11.1624 116.507 10.9311 116.259 10.8024C116.013 10.676 115.65 10.6122 115.172 10.6122C114.636 10.6122 114.257 10.7375 114.034 10.9869C113.874 11.1726 113.768 11.4221 113.715 11.7376H111.555C111.601 11.0222 111.812 10.4345 112.186 9.9743C112.78 9.25437 113.8 8.89441 115.247 8.89441C116.189 8.89441 117.025 9.07212 117.757 9.42753C118.487 9.78178 118.854 10.4527 118.854 11.4369V15.1868C118.854 15.4476 118.859 15.7621 118.869 16.1323C118.885 16.4125 118.929 16.6027 119.003 16.7018C119.076 16.8021 119.186 16.8852 119.333 16.949V17.2645H116.898C116.828 17.0994 116.782 16.9444 116.757 16.7998C116.729 16.6551 116.709 16.4899 116.693 16.3043C116.381 16.6243 116.024 16.8978 115.619 17.1221C115.134 17.3876 114.585 17.5197 113.973 17.5197C113.194 17.5197 112.55 17.3078 112.042 16.8863C111.533 16.4637 111.279 15.8646 111.279 15.09C111.279 14.0841 111.689 13.3574 112.506 12.9075C112.954 12.6625 113.615 12.4872 114.485 12.3824L115.252 12.2924ZM116.622 13.2902C116.478 13.3745 116.334 13.4428 116.188 13.4953C116.042 13.5488 115.841 13.5966 115.586 13.6422L115.078 13.7322C114.6 13.8119 114.257 13.9099 114.048 14.0249C113.695 14.2197 113.519 14.5227 113.519 14.9328C113.519 15.2973 113.627 15.5615 113.842 15.7233C114.057 15.8862 114.319 15.9671 114.627 15.9671C115.117 15.9671 115.568 15.8327 115.98 15.5627C116.392 15.2916 116.606 14.7995 116.622 14.0841V13.2902Z" fill="#fff"/>
<path d="M123.096 17.2646H120.857V6.20959H123.096V17.2646Z" fill="#fff"/>
<path d="M128.672 12.2924C129.089 12.2422 129.387 12.1796 129.567 12.1044C129.888 11.9746 130.051 11.7729 130.051 11.4973C130.051 11.1624 129.926 10.9311 129.679 10.8024C129.433 10.676 129.07 10.6122 128.593 10.6122C128.056 10.6122 127.676 10.7375 127.454 10.9869C127.294 11.1726 127.188 11.4221 127.135 11.7376H124.974C125.022 11.0222 125.233 10.4345 125.605 9.9743C126.199 9.25437 127.221 8.89441 128.667 8.89441C129.609 8.89441 130.445 9.07212 131.176 9.42753C131.906 9.78178 132.273 10.4527 132.273 11.4369V15.1868C132.273 15.4476 132.278 15.7621 132.289 16.1323C132.304 16.4125 132.35 16.6027 132.423 16.7018C132.496 16.8021 132.605 16.8852 132.753 16.949V17.2645H130.317C130.249 17.0994 130.201 16.9444 130.176 16.7998C130.15 16.6551 130.128 16.4899 130.113 16.3043C129.801 16.6243 129.444 16.8978 129.039 17.1221C128.552 17.3876 128.005 17.5197 127.394 17.5197C126.614 17.5197 125.971 17.3078 125.462 16.8863C124.953 16.4637 124.7 15.8646 124.7 15.09C124.7 14.0841 125.108 13.3574 125.926 12.9075C126.375 12.6625 127.035 12.4872 127.905 12.3824L128.672 12.2924ZM130.042 13.2902C129.898 13.3745 129.754 13.4428 129.607 13.4953C129.462 13.5488 129.261 13.5966 129.006 13.6422L128.497 13.7322C128.019 13.8119 127.676 13.9099 127.467 14.0249C127.116 14.2197 126.939 14.5227 126.939 14.9328C126.939 15.2973 127.046 15.5615 127.262 15.7233C127.477 15.8862 127.74 15.9671 128.048 15.9671C128.537 15.9671 128.987 15.8327 129.399 15.5627C129.812 15.2916 130.026 14.7995 130.042 14.0841V13.2902Z" fill="#fff"/>
<path d="M136.532 8.11421H134.262V6.14246H136.532V8.11421ZM134.262 9.08929H136.532V17.2646H134.262V9.08929Z" fill="#fff"/>
<path d="M140.437 14.655C140.484 15.0354 140.587 15.3054 140.745 15.4648C141.023 15.7496 141.539 15.892 142.292 15.892C142.734 15.892 143.086 15.8305 143.346 15.7052C143.606 15.5799 143.737 15.3919 143.737 15.1425C143.737 14.9021 143.632 14.7199 143.422 14.5945C143.212 14.4704 142.432 14.2551 141.08 13.9498C140.106 13.7197 139.421 13.4327 139.023 13.0876C138.626 12.7481 138.426 12.2571 138.426 11.617C138.426 10.8618 138.737 10.2136 139.36 9.67134C139.981 9.12918 140.857 8.85693 141.985 8.85693C143.056 8.85693 143.928 9.06083 144.603 9.46861C145.277 9.8764 145.664 10.5792 145.765 11.5793H143.524C143.493 11.3048 143.412 11.0873 143.28 10.9267C143.034 10.6373 142.614 10.4926 142.02 10.4926C141.531 10.4926 141.183 10.5644 140.976 10.7102C140.768 10.8549 140.664 11.0246 140.664 11.2194C140.664 11.4654 140.776 11.642 140.995 11.7525C141.217 11.8676 141.996 12.0646 143.334 12.3448C144.225 12.5453 144.895 12.8472 145.34 13.2516C145.78 13.6628 146 14.1742 146 14.7893C146 15.5992 145.683 16.2611 145.051 16.7737C144.419 17.2851 143.442 17.5425 142.119 17.5425C140.77 17.5425 139.774 17.2703 139.13 16.7281C138.487 16.187 138.166 15.4944 138.166 14.655H140.437Z" fill="#fff"/>
<path d="M94.7537 13.1171C94.7537 12.2651 95.4778 11.5725 96.3728 11.5725C97.2643 11.5725 97.9896 12.2651 97.9896 13.1171C97.9896 13.9703 97.2643 14.6606 96.3728 14.6606C95.4778 14.6606 94.7537 13.9703 94.7537 13.1171Z" fill="#fff"/>
<path d="M70.4479 13.1171C70.4479 12.2651 71.172 11.5725 72.0658 11.5725C72.9585 11.5725 73.6827 12.2651 73.6827 13.1171C73.6827 13.9703 72.9585 14.6606 72.0658 14.6606C71.172 14.6606 70.4479 13.9703 70.4479 13.1171Z" fill="#fff"/>
</g>
<defs>
<clipPath id="clip0_3699_452">
<rect width="136" height="26" fill="white" transform="translate(10 6)"/>
</clipPath>
</defs>
</svg>
