<svg width="54" height="10" viewBox="0 0 54 10" fill="none" xmlns="http://www.w3.org/2000/svg">
<path fill-rule="evenodd" clip-rule="evenodd" d="M6.15321 9.75806L6.09497 9.81694C5.84264 10.0422 5.44558 10.0596 5.17097 9.86893L5.10503 9.81694L0.205025 5.44194L0.176048 5.41447L0.137436 5.37207L0.0872726 5.30254L0.0498581 5.23208L0.0250931 5.16625L0.00483704 5.07381L0 5L0.00195312 4.95298L0.0141678 4.87455L0.0348167 4.80491L0.0655708 4.73549L0.102196 4.67456L0.153782 4.60909L0.205025 4.55806L5.10503 0.183058C5.3784 -0.0610194 5.82161 -0.0610194 6.09497 0.183058C6.34731 0.408361 6.36672 0.76288 6.15321 1.00806L6.09497 1.06694L2.3912 4.375L53.3 4.375C53.6866 4.375 54 4.65482 54 5C54 5.34518 53.6866 5.625 53.3 5.625L2.3898 5.625L6.09497 8.93306C6.34731 9.15836 6.36672 9.51288 6.15321 9.75806Z" fill="rgba(0, 58, 91, 1)"/>
</svg>
