<svg width="185" height="109" viewBox="0 0 185 109" fill="none" xmlns="http://www.w3.org/2000/svg">
<g id="logo_sia_1 1" clip-path="url(#clip0_1102_17526)">
<path id="Union" fill-rule="evenodd" clip-rule="evenodd" d="M148.489 18.2438C148.489 8.16765 156.661 0 166.745 0C176.828 0 185 8.16758 185 18.2438C185 28.3201 176.828 36.4892 166.745 36.4892C156.661 36.4892 148.489 28.32 148.489 18.2438ZM156.829 25.4424C157.713 25.9431 158.765 26.203 159.937 26.203C163.501 26.203 166.086 23.5602 166.086 20.0351C166.086 17.1515 164.387 15.1034 161.587 14.6967L159.746 17.6287H159.867C161.611 17.6287 162.759 18.724 162.759 20.2494C162.759 21.8439 161.611 23.0126 159.961 23.0126C158.383 23.0126 157.258 21.9144 157.258 20.3199C157.258 19.2951 157.809 18.3658 158.526 17.2235L163.431 9.33628L159.602 9.33628L156.109 15.03C154.915 16.9607 153.957 18.5096 153.957 20.5563C153.957 22.5824 155.034 24.4176 156.829 25.4424ZM168.752 25.9901H178.297V22.7498H171.336L174.828 19.5579C176.814 17.7461 178.131 16.46 178.131 14.1021C178.131 12.7909 177.556 11.5048 176.526 10.5535C175.474 9.57562 174.113 9.05145 172.58 9.05145C169.375 9.05145 166.983 11.3625 166.983 14.3399C166.983 16.1267 167.819 17.6038 169.398 18.652L171.622 16.413C170.691 15.745 170.234 15.03 170.234 14.221C170.234 12.9833 171.194 12.029 172.413 12.029C173.607 12.029 174.565 12.9099 174.565 14.1021C174.565 14.9125 174.16 15.6745 173.321 16.4835L168.012 21.7499C167.174 22.5824 166.672 23.227 166.672 24.1078C166.672 25.2046 167.484 25.9901 168.752 25.9901ZM48.4974 67.9252C51.5249 69.2701 53.8935 71.1286 55.5381 73.4499C57.1574 75.7407 58.2073 78.0166 58.6591 80.2148C59.0978 82.3614 59.3202 84.5016 59.3202 86.5775C59.3202 101.456 49.0711 109 28.8572 109H0.160355L0.160355 93.6764H28.8572C38.3898 93.6764 43.0235 91.3542 43.0235 86.5775C43.0235 84.3452 41.7297 82.5069 39.0679 80.9584C36.203 79.2952 32.6568 77.8681 28.5287 76.7179C24.2978 75.5415 20.0072 74.1573 15.7763 72.6036C11.417 71.0072 7.66817 68.3793 4.63323 64.7929C1.55898 61.1655 0 56.6193 0 51.2811C0 44.4651 2.67272 39.1626 7.94388 35.5204C13.1093 31.9519 19.4435 30.1424 26.7704 30.1424L56.8563 30.1424L47.2351 45.4664H26.7704C23.8338 45.4664 21.2773 46.0249 19.1722 47.1257C17.2374 48.1401 16.2963 49.4995 16.2963 51.2811C16.2963 52.4103 16.5305 53.4256 16.9919 54.2989C17.4747 55.2185 18.0313 55.9713 18.6474 56.5381C19.274 57.1167 20.2776 57.7394 21.6321 58.3905C23.0377 59.0682 24.1344 59.5389 24.8938 59.79C25.655 60.045 28.7008 61.0275 35.08 63.0764C41.0835 65.0051 45.5975 66.6365 48.4974 67.9252ZM66.3797 45.4664L55.9619 45.4664L65.6055 30.1424L82.3553 30.1424L82.3553 109H66.3797V45.4664ZM147.995 38.0884C142.279 32.8156 134.02 30.1424 123.448 30.1424L106.848 30.1424L97.2272 45.4664L122.646 45.4664C134.771 45.4664 140.665 51.5143 140.665 63.9558L140.665 93.6764L120.398 93.6764C110.434 93.6764 105.59 90.5149 105.59 84.0107C105.59 80.661 106.828 78.152 109.375 76.3398C111.985 74.4839 115.748 73.5429 120.559 73.5429C126.08 73.5429 130.816 74.9875 134.656 77.8182V61.6236C129.532 60.1159 124.631 59.3424 120.077 59.3424C111.358 59.3424 103.993 61.4515 98.1871 65.6117C92.2859 69.8408 89.2938 76.0852 89.2938 84.171C89.2938 92.2485 92.1173 98.4881 97.6851 102.715C103.173 106.886 110.652 109 119.917 109L156.64 109L156.64 60.9074C156.64 51.0592 153.732 43.3817 147.995 38.0884Z" fill="#103B59"/>
</g>
<defs>
<clipPath id="clip0_1102_17526">
<rect width="185" height="109" fill="white"/>
</clipPath>
</defs>
</svg>
