<svg width="147" height="27" viewBox="0 0 147 27" fill="none" xmlns="http://www.w3.org/2000/svg">
<path d="M1.204 11V1.396H3.262L5.446 7.626C5.502 7.794 5.558 7.98067 5.614 8.186C5.67933 8.382 5.73533 8.56867 5.782 8.746C5.838 8.92333 5.88 9.07733 5.908 9.208H6.006C6.034 9.068 6.07133 8.90933 6.118 8.732C6.16467 8.54533 6.216 8.354 6.272 8.158C6.328 7.962 6.37933 7.78467 6.426 7.626L8.61 1.396H10.654V11H9.324V5.372C9.324 5.08267 9.32867 4.77 9.338 4.434C9.34733 4.08867 9.35667 3.776 9.366 3.496C9.37533 3.20667 9.38 3.00133 9.38 2.88H9.268C9.24 3.00133 9.19333 3.174 9.128 3.398C9.06267 3.61267 8.99267 3.84133 8.918 4.084C8.85267 4.31733 8.792 4.52733 8.736 4.714L6.482 11H5.334L3.08 4.714C3.024 4.55533 2.96333 4.37333 2.898 4.168C2.842 3.95333 2.78133 3.734 2.716 3.51C2.66 3.286 2.604 3.076 2.548 2.88H2.45C2.45933 3.08533 2.464 3.342 2.464 3.65C2.47333 3.94867 2.478 4.252 2.478 4.56C2.48733 4.85867 2.492 5.12933 2.492 5.372V11H1.204ZM14.6675 11.168C14.3968 11.168 14.1262 11.1353 13.8555 11.07C13.5848 11.0047 13.3328 10.8973 13.0995 10.748C12.8662 10.5987 12.6795 10.3933 12.5395 10.132C12.3995 9.86133 12.3295 9.52533 12.3295 9.124C12.3295 8.62 12.4508 8.20467 12.6935 7.878C12.9362 7.55133 13.2722 7.29933 13.7015 7.122C14.1402 6.93533 14.6582 6.80933 15.2555 6.744C15.8528 6.66933 16.5015 6.632 17.2015 6.632V5.792C17.2015 5.52133 17.1548 5.288 17.0615 5.092C16.9682 4.896 16.8002 4.74667 16.5575 4.644C16.3242 4.532 15.9882 4.476 15.5495 4.476C15.1295 4.476 14.7935 4.532 14.5415 4.644C14.2988 4.74667 14.1262 4.882 14.0235 5.05C13.9302 5.218 13.8835 5.40467 13.8835 5.61V5.82H12.6935C12.6842 5.77333 12.6795 5.72667 12.6795 5.68C12.6795 5.63333 12.6795 5.57733 12.6795 5.512C12.6795 5.064 12.8008 4.69067 13.0435 4.392C13.2955 4.084 13.6455 3.85533 14.0935 3.706C14.5415 3.54733 15.0548 3.468 15.6335 3.468C16.2495 3.468 16.7628 3.55667 17.1735 3.734C17.5935 3.91133 17.9062 4.16333 18.1115 4.49C18.3262 4.81667 18.4335 5.20867 18.4335 5.666V9.656C18.4335 9.83333 18.4755 9.95933 18.5595 10.034C18.6435 10.0993 18.7462 10.132 18.8675 10.132H19.4135V10.944C19.2828 11 19.1382 11.0467 18.9795 11.084C18.8208 11.1307 18.6388 11.154 18.4335 11.154C18.1908 11.154 17.9902 11.1027 17.8315 11C17.6728 10.9067 17.5515 10.776 17.4675 10.608C17.3835 10.4307 17.3275 10.2347 17.2995 10.02H17.2015C17.0335 10.2533 16.8188 10.4587 16.5575 10.636C16.3055 10.804 16.0208 10.9347 15.7035 11.028C15.3862 11.1213 15.0408 11.168 14.6675 11.168ZM14.9755 10.132C15.2742 10.132 15.5542 10.0853 15.8155 9.992C16.0862 9.89867 16.3242 9.768 16.5295 9.6C16.7348 9.42267 16.8982 9.21267 17.0195 8.97C17.1408 8.72733 17.2015 8.46133 17.2015 8.172V7.556C16.4455 7.556 15.8015 7.598 15.2695 7.682C14.7375 7.766 14.3268 7.91533 14.0375 8.13C13.7575 8.34467 13.6175 8.648 13.6175 9.04C13.6175 9.292 13.6735 9.49733 13.7855 9.656C13.8975 9.81467 14.0562 9.936 14.2615 10.02C14.4668 10.0947 14.7048 10.132 14.9755 10.132ZM20.4484 2.25V0.877999H21.6804V2.25H20.4484ZM20.4484 11V3.636H21.6804V11H20.4484ZM26.169 11.168C25.665 11.168 25.2216 11.1167 24.839 11.014C24.4563 10.9113 24.139 10.762 23.887 10.566C23.635 10.37 23.4436 10.1367 23.313 9.866C23.1823 9.59533 23.117 9.28733 23.117 8.942C23.117 8.89533 23.117 8.85333 23.117 8.816C23.117 8.76933 23.1216 8.732 23.131 8.704H24.349C24.3396 8.74133 24.335 8.774 24.335 8.802C24.335 8.83 24.335 8.858 24.335 8.886C24.3443 9.21267 24.4283 9.46933 24.587 9.656C24.755 9.84267 24.9836 9.97333 25.273 10.048C25.5623 10.1227 25.8843 10.16 26.239 10.16C26.547 10.16 26.8316 10.1227 27.093 10.048C27.3543 9.964 27.5596 9.84267 27.709 9.684C27.8676 9.516 27.947 9.306 27.947 9.054C27.947 8.746 27.8443 8.51267 27.639 8.354C27.443 8.186 27.1816 8.05533 26.855 7.962C26.5283 7.86867 26.1876 7.77067 25.833 7.668C25.5343 7.584 25.2356 7.49067 24.937 7.388C24.6383 7.28533 24.3676 7.15933 24.125 7.01C23.8916 6.86067 23.7003 6.66933 23.551 6.436C23.411 6.19333 23.341 5.89 23.341 5.526C23.341 5.19933 23.4063 4.91 23.537 4.658C23.677 4.406 23.873 4.19133 24.125 4.014C24.377 3.83667 24.6803 3.706 25.035 3.622C25.399 3.52867 25.8003 3.482 26.239 3.482C26.7056 3.482 27.1116 3.53333 27.457 3.636C27.8116 3.73867 28.1056 3.88333 28.339 4.07C28.5723 4.25667 28.745 4.47133 28.857 4.714C28.969 4.94733 29.025 5.19933 29.025 5.47C29.025 5.526 29.025 5.582 29.025 5.638C29.025 5.68467 29.0203 5.722 29.011 5.75H27.807V5.596C27.807 5.40933 27.7556 5.232 27.653 5.064C27.5596 4.88667 27.3916 4.74667 27.149 4.644C26.9156 4.532 26.589 4.476 26.169 4.476C25.8983 4.476 25.665 4.49933 25.469 4.546C25.273 4.58333 25.1096 4.64867 24.979 4.742C24.8483 4.826 24.7503 4.92867 24.685 5.05C24.6196 5.162 24.587 5.29267 24.587 5.442C24.587 5.68467 24.6663 5.87133 24.825 6.002C24.9836 6.13267 25.1936 6.24 25.455 6.324C25.7256 6.408 26.015 6.50133 26.323 6.604C26.6496 6.69733 26.981 6.79533 27.317 6.898C27.6623 6.99133 27.975 7.11267 28.255 7.262C28.5443 7.41133 28.773 7.61667 28.941 7.878C29.1183 8.13 29.207 8.466 29.207 8.886C29.207 9.278 29.1323 9.61867 28.983 9.908C28.8336 10.1973 28.619 10.4353 28.339 10.622C28.0683 10.8087 27.7463 10.944 27.373 11.028C27.009 11.1213 26.6076 11.168 26.169 11.168ZM33.7537 11.168C33.007 11.168 32.377 11.0327 31.8637 10.762C31.3597 10.482 30.9723 10.0573 30.7017 9.488C30.4403 8.91867 30.3097 8.19533 30.3097 7.318C30.3097 6.43133 30.4403 5.708 30.7017 5.148C30.9723 4.57867 31.3597 4.15867 31.8637 3.888C32.377 3.608 33.007 3.468 33.7537 3.468C34.5003 3.468 35.1257 3.608 35.6297 3.888C36.143 4.15867 36.5303 4.57867 36.7917 5.148C37.053 5.708 37.1837 6.43133 37.1837 7.318C37.1837 8.19533 37.053 8.91867 36.7917 9.488C36.5303 10.0573 36.143 10.482 35.6297 10.762C35.1257 11.0327 34.5003 11.168 33.7537 11.168ZM33.7537 10.132C34.2297 10.132 34.6263 10.0387 34.9437 9.852C35.261 9.66533 35.499 9.376 35.6577 8.984C35.8257 8.58267 35.9097 8.07867 35.9097 7.472V7.164C35.9097 6.548 35.8257 6.044 35.6577 5.652C35.499 5.26 35.261 4.97067 34.9437 4.784C34.6263 4.59733 34.2297 4.504 33.7537 4.504C33.2777 4.504 32.8763 4.59733 32.5497 4.784C32.2323 4.97067 31.9943 5.26 31.8357 5.652C31.677 6.044 31.5977 6.548 31.5977 7.164V7.472C31.5977 8.07867 31.677 8.58267 31.8357 8.984C31.9943 9.376 32.2323 9.66533 32.5497 9.852C32.8763 10.0387 33.2777 10.132 33.7537 10.132ZM38.714 11V3.636H39.708L39.82 4.742H39.918C40.114 4.44333 40.3334 4.20067 40.576 4.014C40.828 3.82733 41.1034 3.692 41.402 3.608C41.71 3.51467 42.0367 3.468 42.382 3.468C42.8487 3.468 43.2547 3.54733 43.6 3.706C43.9547 3.86467 44.23 4.12133 44.426 4.476C44.6314 4.83067 44.734 5.31133 44.734 5.918V11H43.502V6.086C43.502 5.778 43.46 5.526 43.376 5.33C43.3014 5.134 43.194 4.98 43.054 4.868C42.9234 4.756 42.76 4.67667 42.564 4.63C42.3774 4.58333 42.1674 4.56 41.934 4.56C41.5887 4.56 41.262 4.644 40.954 4.812C40.646 4.98 40.3987 5.22267 40.212 5.54C40.0347 5.85733 39.946 6.23533 39.946 6.674V11H38.714ZM52.0345 11.168C51.4278 11.168 50.9052 11.0327 50.4665 10.762C50.0372 10.4913 49.7012 10.0713 49.4585 9.502C49.2252 8.92333 49.1085 8.17667 49.1085 7.262C49.1085 6.394 49.2298 5.68 49.4725 5.12C49.7152 4.56 50.0512 4.14467 50.4805 3.874C50.9098 3.60333 51.4092 3.468 51.9785 3.468C52.3052 3.468 52.6085 3.50533 52.8885 3.58C53.1685 3.65467 53.4158 3.77133 53.6305 3.93C53.8545 4.08867 54.0505 4.29867 54.2185 4.56H54.3025V0.877999H55.5345V11H54.5405L54.4285 9.95H54.3305C54.0785 10.3607 53.7518 10.6687 53.3505 10.874C52.9492 11.07 52.5105 11.168 52.0345 11.168ZM52.3285 10.09C52.7952 10.09 53.1732 9.98733 53.4625 9.782C53.7518 9.57667 53.9618 9.278 54.0925 8.886C54.2325 8.494 54.3025 8.00867 54.3025 7.43V7.206C54.3025 6.702 54.2512 6.27733 54.1485 5.932C54.0458 5.58667 53.9058 5.31133 53.7285 5.106C53.5512 4.90067 53.3458 4.756 53.1125 4.672C52.8792 4.588 52.6318 4.546 52.3705 4.546C51.9132 4.546 51.5398 4.63933 51.2505 4.826C50.9612 5.00333 50.7465 5.288 50.6065 5.68C50.4665 6.06267 50.3965 6.562 50.3965 7.178V7.472C50.3965 8.10667 50.4712 8.62 50.6205 9.012C50.7698 9.39467 50.9845 9.67 51.2645 9.838C51.5538 10.006 51.9085 10.09 52.3285 10.09ZM60.4119 11.168C59.6839 11.168 59.0679 11.0327 58.5639 10.762C58.0692 10.482 57.6912 10.0573 57.4299 9.488C57.1779 8.91867 57.0519 8.19533 57.0519 7.318C57.0519 6.43133 57.1779 5.708 57.4299 5.148C57.6912 4.57867 58.0739 4.15867 58.5779 3.888C59.0819 3.608 59.7119 3.468 60.4679 3.468C61.1585 3.468 61.7372 3.60333 62.2039 3.874C62.6705 4.13533 63.0205 4.532 63.2539 5.064C63.4965 5.58667 63.6179 6.24467 63.6179 7.038V7.626H58.3259C58.3445 8.214 58.4285 8.69933 58.5779 9.082C58.7365 9.45533 58.9699 9.73067 59.2779 9.908C59.5859 10.076 59.9732 10.16 60.4399 10.16C60.7572 10.16 61.0325 10.1227 61.2659 10.048C61.5085 9.964 61.7092 9.84733 61.8679 9.698C62.0359 9.54867 62.1619 9.37133 62.2459 9.166C62.3299 8.96067 62.3765 8.73667 62.3859 8.494H63.5899C63.5805 8.886 63.5059 9.25 63.3659 9.586C63.2259 9.91267 63.0205 10.1927 62.7499 10.426C62.4792 10.6593 62.1479 10.8413 61.7559 10.972C61.3639 11.1027 60.9159 11.168 60.4119 11.168ZM58.3539 6.702H62.3439C62.3439 6.29133 62.2972 5.946 62.2039 5.666C62.1105 5.386 61.9752 5.15733 61.7979 4.98C61.6299 4.80267 61.4292 4.67667 61.1959 4.602C60.9719 4.518 60.7152 4.476 60.4259 4.476C59.9965 4.476 59.6325 4.55533 59.3339 4.714C59.0352 4.87267 58.8065 5.11533 58.6479 5.442C58.4892 5.76867 58.3912 6.18867 58.3539 6.702ZM68.0676 11V0.877999H69.2996V11H68.0676ZM71.1141 4.91V4.35C71.3008 4.30333 71.4501 4.21 71.5621 4.07C71.6834 3.93 71.7674 3.75733 71.8141 3.552C71.8701 3.34667 71.8981 3.118 71.8981 2.866H71.2541V1.396H72.6261V2.712C72.6261 3.244 72.5468 3.664 72.3881 3.972C72.2294 4.28 72.0334 4.504 71.8001 4.644C71.5761 4.77467 71.3474 4.86333 71.1141 4.91ZM72.3675 11L76.1615 1.396H77.9115L81.7195 11H80.2775L79.3395 8.62H74.6635L73.7395 11H72.3675ZM75.0975 7.486H78.8915L77.7295 4.476C77.7015 4.392 77.6595 4.27533 77.6035 4.126C77.5475 3.97667 77.4869 3.81333 77.4215 3.636C77.3562 3.44933 77.2909 3.26267 77.2255 3.076C77.1602 2.88 77.0995 2.70267 77.0435 2.544H76.9595C76.8942 2.73067 76.8195 2.94533 76.7355 3.188C76.6515 3.43067 76.5675 3.66867 76.4835 3.902C76.3995 4.126 76.3295 4.31733 76.2735 4.476L75.0975 7.486ZM82.7785 11V3.636H83.7725L83.8845 4.854H83.9825C84.0572 4.62067 84.1598 4.40133 84.2905 4.196C84.4212 3.98133 84.5985 3.80867 84.8225 3.678C85.0465 3.538 85.3218 3.468 85.6485 3.468C85.7885 3.468 85.9145 3.482 86.0265 3.51C86.1478 3.52867 86.2365 3.552 86.2925 3.58V4.714H85.8305C85.5132 4.714 85.2378 4.77 85.0045 4.882C84.7805 4.98467 84.5938 5.134 84.4445 5.33C84.2952 5.526 84.1832 5.75933 84.1085 6.03C84.0432 6.30067 84.0105 6.59 84.0105 6.898V11H82.7785ZM90.0902 11.168C89.3809 11.168 88.7836 11.0327 88.2982 10.762C87.8222 10.482 87.4582 10.0573 87.2062 9.488C86.9636 8.90933 86.8422 8.186 86.8422 7.318C86.8422 6.45 86.9636 5.73133 87.2062 5.162C87.4582 4.59267 87.8269 4.168 88.3122 3.888C88.8069 3.608 89.4136 3.468 90.1322 3.468C90.6362 3.468 91.0702 3.53333 91.4342 3.664C91.8076 3.79467 92.1156 3.986 92.3582 4.238C92.6009 4.49 92.7782 4.79333 92.8902 5.148C93.0116 5.50267 93.0722 5.90867 93.0722 6.366H91.8262C91.8262 5.93667 91.7656 5.58667 91.6442 5.316C91.5322 5.036 91.3502 4.83067 91.0982 4.7C90.8462 4.56 90.5149 4.49 90.1042 4.49C89.6936 4.49 89.3389 4.58333 89.0402 4.77C88.7416 4.94733 88.5129 5.232 88.3542 5.624C88.1956 6.016 88.1162 6.534 88.1162 7.178V7.472C88.1162 8.07867 88.1909 8.58267 88.3402 8.984C88.4989 9.38533 88.7276 9.67933 89.0262 9.866C89.3249 10.0527 89.6889 10.146 90.1182 10.146C90.5382 10.146 90.8742 10.0713 91.1262 9.922C91.3876 9.77267 91.5742 9.558 91.6862 9.278C91.8076 8.998 91.8682 8.662 91.8682 8.27H93.0722C93.0722 8.68067 93.0116 9.06333 92.8902 9.418C92.7782 9.77267 92.6009 10.0807 92.3582 10.342C92.1156 10.6033 91.8076 10.8087 91.4342 10.958C91.0609 11.098 90.6129 11.168 90.0902 11.168ZM94.55 11V0.877999H95.782V4.56H95.88C96.0667 4.308 96.2767 4.10267 96.51 3.944C96.7433 3.78533 97 3.66867 97.28 3.594C97.5693 3.51 97.882 3.468 98.218 3.468C98.6847 3.468 99.0907 3.54733 99.436 3.706C99.7907 3.86467 100.066 4.12133 100.262 4.476C100.467 4.83067 100.57 5.31133 100.57 5.918V11H99.338V6.086C99.338 5.778 99.296 5.526 99.212 5.33C99.1373 5.134 99.03 4.98 98.89 4.868C98.7593 4.756 98.596 4.67667 98.4 4.63C98.2133 4.58333 98.0033 4.56 97.77 4.56C97.4247 4.56 97.098 4.644 96.79 4.812C96.482 4.97067 96.2347 5.20867 96.048 5.526C95.8707 5.834 95.782 6.21667 95.782 6.674V11H94.55ZM105.379 11.168C104.651 11.168 104.035 11.0327 103.531 10.762C103.036 10.482 102.658 10.0573 102.397 9.488C102.145 8.91867 102.019 8.19533 102.019 7.318C102.019 6.43133 102.145 5.708 102.397 5.148C102.658 4.57867 103.041 4.15867 103.545 3.888C104.049 3.608 104.679 3.468 105.435 3.468C106.125 3.468 106.704 3.60333 107.171 3.874C107.637 4.13533 107.987 4.532 108.221 5.064C108.463 5.58667 108.585 6.24467 108.585 7.038V7.626H103.293C103.311 8.214 103.395 8.69933 103.545 9.082C103.703 9.45533 103.937 9.73067 104.245 9.908C104.553 10.076 104.94 10.16 105.407 10.16C105.724 10.16 105.999 10.1227 106.233 10.048C106.475 9.964 106.676 9.84733 106.835 9.698C107.003 9.54867 107.129 9.37133 107.213 9.166C107.297 8.96067 107.343 8.73667 107.353 8.494H108.557C108.547 8.886 108.473 9.25 108.333 9.586C108.193 9.91267 107.987 10.1927 107.717 10.426C107.446 10.6593 107.115 10.8413 106.723 10.972C106.331 11.1027 105.883 11.168 105.379 11.168ZM103.321 6.702H107.311C107.311 6.29133 107.264 5.946 107.171 5.666C107.077 5.386 106.942 5.15733 106.765 4.98C106.597 4.80267 106.396 4.67667 106.163 4.602C105.939 4.518 105.682 4.476 105.393 4.476C104.963 4.476 104.599 4.55533 104.301 4.714C104.002 4.87267 103.773 5.11533 103.615 5.442C103.456 5.76867 103.358 6.18867 103.321 6.702ZM104.665 2.726L105.869 0.877999H107.269L107.283 0.92L105.729 2.726H104.665ZM113.133 11.168C112.386 11.168 111.756 11.0327 111.243 10.762C110.739 10.482 110.351 10.0573 110.081 9.488C109.819 8.91867 109.689 8.19533 109.689 7.318C109.689 6.43133 109.819 5.708 110.081 5.148C110.351 4.57867 110.739 4.15867 111.243 3.888C111.756 3.608 112.386 3.468 113.133 3.468C113.879 3.468 114.505 3.608 115.009 3.888C115.522 4.15867 115.909 4.57867 116.171 5.148C116.432 5.708 116.563 6.43133 116.563 7.318C116.563 8.19533 116.432 8.91867 116.171 9.488C115.909 10.0573 115.522 10.482 115.009 10.762C114.505 11.0327 113.879 11.168 113.133 11.168ZM113.133 10.132C113.609 10.132 114.005 10.0387 114.323 9.852C114.64 9.66533 114.878 9.376 115.037 8.984C115.205 8.58267 115.289 8.07867 115.289 7.472V7.164C115.289 6.548 115.205 6.044 115.037 5.652C114.878 5.26 114.64 4.97067 114.323 4.784C114.005 4.59733 113.609 4.504 113.133 4.504C112.657 4.504 112.255 4.59733 111.929 4.784C111.611 4.97067 111.373 5.26 111.215 5.652C111.056 6.044 110.977 6.548 110.977 7.164V7.472C110.977 8.07867 111.056 8.58267 111.215 8.984C111.373 9.376 111.611 9.66533 111.929 9.852C112.255 10.0387 112.657 10.132 113.133 10.132ZM118.093 11V0.877999H119.325V11H118.093ZM124.261 11.168C123.515 11.168 122.885 11.0327 122.371 10.762C121.867 10.482 121.48 10.0573 121.209 9.488C120.948 8.91867 120.817 8.19533 120.817 7.318C120.817 6.43133 120.948 5.708 121.209 5.148C121.48 4.57867 121.867 4.15867 122.371 3.888C122.885 3.608 123.515 3.468 124.261 3.468C125.008 3.468 125.633 3.608 126.137 3.888C126.651 4.15867 127.038 4.57867 127.299 5.148C127.561 5.708 127.691 6.43133 127.691 7.318C127.691 8.19533 127.561 8.91867 127.299 9.488C127.038 10.0573 126.651 10.482 126.137 10.762C125.633 11.0327 125.008 11.168 124.261 11.168ZM124.261 10.132C124.737 10.132 125.134 10.0387 125.451 9.852C125.769 9.66533 126.007 9.376 126.165 8.984C126.333 8.58267 126.417 8.07867 126.417 7.472V7.164C126.417 6.548 126.333 6.044 126.165 5.652C126.007 5.26 125.769 4.97067 125.451 4.784C125.134 4.59733 124.737 4.504 124.261 4.504C123.785 4.504 123.384 4.59733 123.057 4.784C122.74 4.97067 122.502 5.26 122.343 5.652C122.185 6.044 122.105 6.548 122.105 7.164V7.472C122.105 8.07867 122.185 8.58267 122.343 8.984C122.502 9.376 122.74 9.66533 123.057 9.852C123.384 10.0387 123.785 10.132 124.261 10.132ZM130.468 13.548C130.113 13.548 129.787 13.4733 129.488 13.324C129.189 13.184 128.951 12.9787 128.774 12.708C128.597 12.4373 128.508 12.1153 128.508 11.742C128.508 11.3313 128.62 10.9907 128.844 10.72C129.077 10.4493 129.353 10.2487 129.67 10.118C129.437 10.006 129.255 9.852 129.124 9.656C128.993 9.45067 128.928 9.22667 128.928 8.984C128.928 8.65733 129.045 8.382 129.278 8.158C129.521 7.934 129.815 7.78467 130.16 7.71C129.843 7.50467 129.591 7.24333 129.404 6.926C129.227 6.59933 129.138 6.24 129.138 5.848C129.138 5.38133 129.245 4.97067 129.46 4.616C129.684 4.26133 130.02 3.98133 130.468 3.776C130.925 3.57067 131.481 3.468 132.134 3.468C132.433 3.468 132.713 3.49133 132.974 3.538C133.235 3.57533 133.469 3.64067 133.674 3.734C134.001 3.58467 134.243 3.39333 134.402 3.16C134.57 2.92667 134.673 2.68867 134.71 2.446H135.928C135.928 2.726 135.863 2.992 135.732 3.244C135.611 3.48667 135.443 3.692 135.228 3.86C135.013 4.01867 134.752 4.126 134.444 4.182C134.677 4.406 134.85 4.658 134.962 4.938C135.083 5.218 135.144 5.52133 135.144 5.848C135.144 6.31467 135.032 6.73 134.808 7.094C134.593 7.44867 134.267 7.72867 133.828 7.934C133.389 8.13933 132.839 8.242 132.176 8.242H131.028C130.776 8.242 130.571 8.29333 130.412 8.396C130.253 8.48933 130.174 8.64333 130.174 8.858C130.174 9.04467 130.253 9.19867 130.412 9.32C130.571 9.432 130.776 9.488 131.028 9.488H134.024C134.565 9.488 135.009 9.67 135.354 10.034C135.699 10.3887 135.872 10.846 135.872 11.406C135.872 11.8073 135.769 12.1667 135.564 12.484C135.368 12.8107 135.088 13.0673 134.724 13.254C134.369 13.45 133.954 13.548 133.478 13.548H130.468ZM130.818 12.61H133.464C133.679 12.61 133.875 12.5633 134.052 12.47C134.229 12.386 134.369 12.2647 134.472 12.106C134.575 11.9473 134.626 11.7747 134.626 11.588C134.626 11.2707 134.533 11.0187 134.346 10.832C134.159 10.6453 133.926 10.552 133.646 10.552H130.818C130.519 10.552 130.267 10.6547 130.062 10.86C129.857 11.056 129.754 11.2987 129.754 11.588C129.754 11.896 129.857 12.1433 130.062 12.33C130.267 12.5167 130.519 12.61 130.818 12.61ZM132.148 7.318C132.745 7.318 133.189 7.18733 133.478 6.926C133.767 6.66467 133.912 6.30533 133.912 5.848C133.912 5.4 133.767 5.04533 133.478 4.784C133.189 4.52267 132.745 4.392 132.148 4.392C131.551 4.392 131.103 4.52267 130.804 4.784C130.515 5.04533 130.37 5.4 130.37 5.848C130.37 6.13733 130.435 6.394 130.566 6.618C130.697 6.842 130.893 7.01467 131.154 7.136C131.415 7.25733 131.747 7.318 132.148 7.318ZM137.001 2.25V0.877999H138.233V2.25H137.001ZM137.001 11V3.636H138.233V11H137.001ZM143.086 11.168C142.358 11.168 141.742 11.0327 141.238 10.762C140.743 10.482 140.365 10.0573 140.104 9.488C139.852 8.91867 139.726 8.19533 139.726 7.318C139.726 6.43133 139.852 5.708 140.104 5.148C140.365 4.57867 140.748 4.15867 141.252 3.888C141.756 3.608 142.386 3.468 143.142 3.468C143.832 3.468 144.411 3.60333 144.878 3.874C145.344 4.13533 145.694 4.532 145.928 5.064C146.17 5.58667 146.292 6.24467 146.292 7.038V7.626H141C141.018 8.214 141.102 8.69933 141.252 9.082C141.41 9.45533 141.644 9.73067 141.952 9.908C142.26 10.076 142.647 10.16 143.114 10.16C143.431 10.16 143.706 10.1227 143.94 10.048C144.182 9.964 144.383 9.84733 144.542 9.698C144.71 9.54867 144.836 9.37133 144.92 9.166C145.004 8.96067 145.05 8.73667 145.06 8.494H146.264C146.254 8.886 146.18 9.25 146.04 9.586C145.9 9.91267 145.694 10.1927 145.424 10.426C145.153 10.6593 144.822 10.8413 144.43 10.972C144.038 11.1027 143.59 11.168 143.086 11.168ZM141.028 6.702H145.018C145.018 6.29133 144.971 5.946 144.878 5.666C144.784 5.386 144.649 5.15733 144.472 4.98C144.304 4.80267 144.103 4.67667 143.87 4.602C143.646 4.518 143.389 4.476 143.1 4.476C142.67 4.476 142.306 4.55533 142.008 4.714C141.709 4.87267 141.48 5.11533 141.322 5.442C141.163 5.76867 141.065 6.18867 141.028 6.702ZM3.472 26.168C2.86533 26.168 2.34267 26.0327 1.904 25.762C1.47467 25.4913 1.13867 25.0713 0.896 24.502C0.662667 23.9233 0.546 23.1767 0.546 22.262C0.546 21.394 0.667333 20.68 0.91 20.12C1.15267 19.56 1.48867 19.1447 1.918 18.874C2.34733 18.6033 2.84667 18.468 3.416 18.468C3.74267 18.468 4.046 18.5053 4.326 18.58C4.606 18.6547 4.85333 18.7713 5.068 18.93C5.292 19.0887 5.488 19.2987 5.656 19.56H5.74V15.878H6.972V26H5.978L5.866 24.95H5.768C5.516 25.3607 5.18933 25.6687 4.788 25.874C4.38667 26.07 3.948 26.168 3.472 26.168ZM3.766 25.09C4.23267 25.09 4.61067 24.9873 4.9 24.782C5.18933 24.5767 5.39933 24.278 5.53 23.886C5.67 23.494 5.74 23.0087 5.74 22.43V22.206C5.74 21.702 5.68867 21.2773 5.586 20.932C5.48333 20.5867 5.34333 20.3113 5.166 20.106C4.98867 19.9007 4.78333 19.756 4.55 19.672C4.31667 19.588 4.06933 19.546 3.808 19.546C3.35067 19.546 2.97733 19.6393 2.688 19.826C2.39867 20.0033 2.184 20.288 2.044 20.68C1.904 21.0627 1.834 21.562 1.834 22.178V22.472C1.834 23.1067 1.90867 23.62 2.058 24.012C2.20733 24.3947 2.422 24.67 2.702 24.838C2.99133 25.006 3.346 25.09 3.766 25.09ZM11.1914 26.168C10.482 26.168 9.91269 25.986 9.48336 25.622C9.05403 25.258 8.83936 24.6233 8.83936 23.718V18.636H10.0714V23.55C10.0714 23.858 10.1087 24.11 10.1834 24.306C10.258 24.502 10.3654 24.656 10.5054 24.768C10.6454 24.88 10.8087 24.9593 10.9954 25.006C11.1914 25.0527 11.4014 25.076 11.6254 25.076C11.98 25.076 12.3067 24.992 12.6054 24.824C12.904 24.656 13.1467 24.4133 13.3334 24.096C13.5294 23.7693 13.6274 23.3913 13.6274 22.962V18.636H14.8594V26H13.8654L13.7534 24.894H13.6554C13.4594 25.1927 13.2354 25.4353 12.9834 25.622C12.7407 25.8087 12.4654 25.944 12.1574 26.028C11.8587 26.1213 11.5367 26.168 11.1914 26.168ZM19.9345 26V16.396H24.6805C25.3431 16.396 25.8938 16.522 26.3325 16.774C26.7711 17.0167 27.0978 17.3573 27.3125 17.796C27.5365 18.2347 27.6485 18.7433 27.6485 19.322C27.6485 19.91 27.5271 20.4327 27.2845 20.89C27.0418 21.338 26.6965 21.688 26.2485 21.94C25.8098 22.192 25.2825 22.318 24.6665 22.318H21.2645V26H19.9345ZM21.2645 21.17H24.5825C25.1051 21.17 25.5205 21.0067 25.8285 20.68C26.1458 20.3533 26.3045 19.9053 26.3045 19.336C26.3045 18.9533 26.2391 18.6313 26.1085 18.37C25.9778 18.1087 25.7865 17.908 25.5345 17.768C25.2825 17.6187 24.9651 17.544 24.5825 17.544H21.2645V21.17ZM30.7183 26.168C30.4476 26.168 30.177 26.1353 29.9063 26.07C29.6356 26.0047 29.3836 25.8973 29.1503 25.748C28.917 25.5987 28.7303 25.3933 28.5903 25.132C28.4503 24.8613 28.3803 24.5253 28.3803 24.124C28.3803 23.62 28.5016 23.2047 28.7443 22.878C28.987 22.5513 29.323 22.2993 29.7523 22.122C30.191 21.9353 30.709 21.8093 31.3063 21.744C31.9036 21.6693 32.5523 21.632 33.2523 21.632V20.792C33.2523 20.5213 33.2056 20.288 33.1123 20.092C33.019 19.896 32.851 19.7467 32.6083 19.644C32.375 19.532 32.039 19.476 31.6003 19.476C31.1803 19.476 30.8443 19.532 30.5923 19.644C30.3496 19.7467 30.177 19.882 30.0743 20.05C29.981 20.218 29.9343 20.4047 29.9343 20.61V20.82H28.7443C28.735 20.7733 28.7303 20.7267 28.7303 20.68C28.7303 20.6333 28.7303 20.5773 28.7303 20.512C28.7303 20.064 28.8516 19.6907 29.0943 19.392C29.3463 19.084 29.6963 18.8553 30.1443 18.706C30.5923 18.5473 31.1056 18.468 31.6843 18.468C32.3003 18.468 32.8136 18.5567 33.2243 18.734C33.6443 18.9113 33.957 19.1633 34.1623 19.49C34.377 19.8167 34.4843 20.2087 34.4843 20.666V24.656C34.4843 24.8333 34.5263 24.9593 34.6103 25.034C34.6943 25.0993 34.797 25.132 34.9183 25.132H35.4643V25.944C35.3336 26 35.189 26.0467 35.0303 26.084C34.8716 26.1307 34.6896 26.154 34.4843 26.154C34.2416 26.154 34.041 26.1027 33.8823 26C33.7236 25.9067 33.6023 25.776 33.5183 25.608C33.4343 25.4307 33.3783 25.2347 33.3503 25.02H33.2523C33.0843 25.2533 32.8696 25.4587 32.6083 25.636C32.3563 25.804 32.0716 25.9347 31.7543 26.028C31.437 26.1213 31.0916 26.168 30.7183 26.168ZM31.0263 25.132C31.325 25.132 31.605 25.0853 31.8663 24.992C32.137 24.8987 32.375 24.768 32.5803 24.6C32.7856 24.4227 32.949 24.2127 33.0703 23.97C33.1916 23.7273 33.2523 23.4613 33.2523 23.172V22.556C32.4963 22.556 31.8523 22.598 31.3203 22.682C30.7883 22.766 30.3776 22.9153 30.0883 23.13C29.8083 23.3447 29.6683 23.648 29.6683 24.04C29.6683 24.292 29.7243 24.4973 29.8363 24.656C29.9483 24.8147 30.107 24.936 30.3123 25.02C30.5176 25.0947 30.7556 25.132 31.0263 25.132ZM39.0752 26.168C38.5712 26.168 38.1279 26.1167 37.7452 26.014C37.3625 25.9113 37.0452 25.762 36.7932 25.566C36.5412 25.37 36.3499 25.1367 36.2192 24.866C36.0885 24.5953 36.0232 24.2873 36.0232 23.942C36.0232 23.8953 36.0232 23.8533 36.0232 23.816C36.0232 23.7693 36.0279 23.732 36.0372 23.704H37.2552C37.2459 23.7413 37.2412 23.774 37.2412 23.802C37.2412 23.83 37.2412 23.858 37.2412 23.886C37.2505 24.2127 37.3345 24.4693 37.4932 24.656C37.6612 24.8427 37.8899 24.9733 38.1792 25.048C38.4685 25.1227 38.7905 25.16 39.1452 25.16C39.4532 25.16 39.7379 25.1227 39.9992 25.048C40.2605 24.964 40.4659 24.8427 40.6152 24.684C40.7739 24.516 40.8532 24.306 40.8532 24.054C40.8532 23.746 40.7505 23.5127 40.5452 23.354C40.3492 23.186 40.0879 23.0553 39.7612 22.962C39.4345 22.8687 39.0939 22.7707 38.7392 22.668C38.4405 22.584 38.1419 22.4907 37.8432 22.388C37.5445 22.2853 37.2739 22.1593 37.0312 22.01C36.7979 21.8607 36.6065 21.6693 36.4572 21.436C36.3172 21.1933 36.2472 20.89 36.2472 20.526C36.2472 20.1993 36.3125 19.91 36.4432 19.658C36.5832 19.406 36.7792 19.1913 37.0312 19.014C37.2832 18.8367 37.5865 18.706 37.9412 18.622C38.3052 18.5287 38.7065 18.482 39.1452 18.482C39.6119 18.482 40.0179 18.5333 40.3632 18.636C40.7179 18.7387 41.0119 18.8833 41.2452 19.07C41.4785 19.2567 41.6512 19.4713 41.7632 19.714C41.8752 19.9473 41.9312 20.1993 41.9312 20.47C41.9312 20.526 41.9312 20.582 41.9312 20.638C41.9312 20.6847 41.9265 20.722 41.9172 20.75H40.7132V20.596C40.7132 20.4093 40.6619 20.232 40.5592 20.064C40.4659 19.8867 40.2979 19.7467 40.0552 19.644C39.8219 19.532 39.4952 19.476 39.0752 19.476C38.8045 19.476 38.5712 19.4993 38.3752 19.546C38.1792 19.5833 38.0159 19.6487 37.8852 19.742C37.7545 19.826 37.6565 19.9287 37.5912 20.05C37.5259 20.162 37.4932 20.2927 37.4932 20.442C37.4932 20.6847 37.5725 20.8713 37.7312 21.002C37.8899 21.1327 38.0999 21.24 38.3612 21.324C38.6319 21.408 38.9212 21.5013 39.2292 21.604C39.5559 21.6973 39.8872 21.7953 40.2232 21.898C40.5685 21.9913 40.8812 22.1127 41.1612 22.262C41.4505 22.4113 41.6792 22.6167 41.8472 22.878C42.0245 23.13 42.1132 23.466 42.1132 23.886C42.1132 24.278 42.0385 24.6187 41.8892 24.908C41.7399 25.1973 41.5252 25.4353 41.2452 25.622C40.9745 25.8087 40.6525 25.944 40.2792 26.028C39.9152 26.1213 39.5139 26.168 39.0752 26.168ZM43.2299 22.836V21.59H46.7719V22.836H43.2299ZM50.804 26.168C50.1974 26.168 49.6747 26.0327 49.236 25.762C48.8067 25.4913 48.4707 25.0713 48.228 24.502C47.9947 23.9233 47.878 23.1767 47.878 22.262C47.878 21.394 47.9994 20.68 48.242 20.12C48.4847 19.56 48.8207 19.1447 49.25 18.874C49.6794 18.6033 50.1787 18.468 50.748 18.468C51.0747 18.468 51.378 18.5053 51.658 18.58C51.938 18.6547 52.1854 18.7713 52.4 18.93C52.624 19.0887 52.82 19.2987 52.988 19.56H53.072V15.878H54.304V26H53.31L53.198 24.95H53.1C52.848 25.3607 52.5214 25.6687 52.12 25.874C51.7187 26.07 51.28 26.168 50.804 26.168ZM51.098 25.09C51.5647 25.09 51.9427 24.9873 52.232 24.782C52.5214 24.5767 52.7314 24.278 52.862 23.886C53.002 23.494 53.072 23.0087 53.072 22.43V22.206C53.072 21.702 53.0207 21.2773 52.918 20.932C52.8154 20.5867 52.6754 20.3113 52.498 20.106C52.3207 19.9007 52.1154 19.756 51.882 19.672C51.6487 19.588 51.4014 19.546 51.14 19.546C50.6827 19.546 50.3094 19.6393 50.02 19.826C49.7307 20.0033 49.516 20.288 49.376 20.68C49.236 21.0627 49.166 21.562 49.166 22.178V22.472C49.166 23.1067 49.2407 23.62 49.39 24.012C49.5394 24.3947 49.754 24.67 50.034 24.838C50.3234 25.006 50.678 25.09 51.098 25.09ZM59.1814 26.168C58.4534 26.168 57.8374 26.0327 57.3334 25.762C56.8387 25.482 56.4607 25.0573 56.1994 24.488C55.9474 23.9187 55.8214 23.1953 55.8214 22.318C55.8214 21.4313 55.9474 20.708 56.1994 20.148C56.4607 19.5787 56.8434 19.1587 57.3474 18.888C57.8514 18.608 58.4814 18.468 59.2374 18.468C59.9281 18.468 60.5067 18.6033 60.9734 18.874C61.4401 19.1353 61.7901 19.532 62.0234 20.064C62.2661 20.5867 62.3874 21.2447 62.3874 22.038V22.626H57.0954C57.1141 23.214 57.1981 23.6993 57.3474 24.082C57.5061 24.4553 57.7394 24.7307 58.0474 24.908C58.3554 25.076 58.7427 25.16 59.2094 25.16C59.5267 25.16 59.8021 25.1227 60.0354 25.048C60.2781 24.964 60.4787 24.8473 60.6374 24.698C60.8054 24.5487 60.9314 24.3713 61.0154 24.166C61.0994 23.9607 61.1461 23.7367 61.1554 23.494H62.3594C62.3501 23.886 62.2754 24.25 62.1354 24.586C61.9954 24.9127 61.7901 25.1927 61.5194 25.426C61.2487 25.6593 60.9174 25.8413 60.5254 25.972C60.1334 26.1027 59.6854 26.168 59.1814 26.168ZM57.1234 21.702H61.1134C61.1134 21.2913 61.0667 20.946 60.9734 20.666C60.8801 20.386 60.7447 20.1573 60.5674 19.98C60.3994 19.8027 60.1987 19.6767 59.9654 19.602C59.7414 19.518 59.4847 19.476 59.1954 19.476C58.7661 19.476 58.4021 19.5553 58.1034 19.714C57.8047 19.8727 57.5761 20.1153 57.4174 20.442C57.2587 20.7687 57.1607 21.1887 57.1234 21.702ZM63.5053 22.836V21.59H67.0473V22.836H63.5053ZM72.9134 26.168C71.9334 26.168 71.1028 25.9907 70.4214 25.636C69.7401 25.272 69.2174 24.726 68.8534 23.998C68.4988 23.2607 68.3214 22.3273 68.3214 21.198C68.3214 19.5273 68.7274 18.2813 69.5394 17.46C70.3514 16.6387 71.4808 16.228 72.9274 16.228C73.7488 16.228 74.4768 16.3633 75.1114 16.634C75.7461 16.8953 76.2408 17.2967 76.5954 17.838C76.9594 18.37 77.1414 19.042 77.1414 19.854H75.7974C75.7974 19.294 75.6761 18.832 75.4334 18.468C75.2001 18.104 74.8688 17.8333 74.4394 17.656C74.0101 17.4693 73.5061 17.376 72.9274 17.376C72.2554 17.376 71.6768 17.5067 71.1914 17.768C70.7061 18.0293 70.3374 18.4353 70.0854 18.986C69.8334 19.5273 69.7074 20.2273 69.7074 21.086V21.38C69.7074 22.2293 69.8334 22.9247 70.0854 23.466C70.3374 23.998 70.7014 24.39 71.1774 24.642C71.6628 24.894 72.2461 25.02 72.9274 25.02C73.5248 25.02 74.0381 24.9313 74.4674 24.754C74.9061 24.5767 75.2421 24.306 75.4754 23.942C75.7181 23.5687 75.8394 23.102 75.8394 22.542H77.1414C77.1414 23.3727 76.9548 24.054 76.5814 24.586C76.2174 25.118 75.7181 25.5147 75.0834 25.776C74.4488 26.0373 73.7254 26.168 72.9134 26.168ZM80.607 26.168C80.3363 26.168 80.0656 26.1353 79.795 26.07C79.5243 26.0047 79.2723 25.8973 79.039 25.748C78.8056 25.5987 78.619 25.3933 78.479 25.132C78.339 24.8613 78.269 24.5253 78.269 24.124C78.269 23.62 78.3903 23.2047 78.633 22.878C78.8756 22.5513 79.2116 22.2993 79.641 22.122C80.0796 21.9353 80.5976 21.8093 81.195 21.744C81.7923 21.6693 82.441 21.632 83.141 21.632V20.792C83.141 20.5213 83.0943 20.288 83.001 20.092C82.9076 19.896 82.7396 19.7467 82.497 19.644C82.2636 19.532 81.9276 19.476 81.489 19.476C81.069 19.476 80.733 19.532 80.481 19.644C80.2383 19.7467 80.0656 19.882 79.963 20.05C79.8696 20.218 79.823 20.4047 79.823 20.61V20.82H78.633C78.6236 20.7733 78.619 20.7267 78.619 20.68C78.619 20.6333 78.619 20.5773 78.619 20.512C78.619 20.064 78.7403 19.6907 78.983 19.392C79.235 19.084 79.585 18.8553 80.033 18.706C80.481 18.5473 80.9943 18.468 81.573 18.468C82.189 18.468 82.7023 18.5567 83.113 18.734C83.533 18.9113 83.8456 19.1633 84.051 19.49C84.2656 19.8167 84.373 20.2087 84.373 20.666V24.656C84.373 24.8333 84.415 24.9593 84.499 25.034C84.583 25.0993 84.6856 25.132 84.807 25.132H85.353V25.944C85.2223 26 85.0776 26.0467 84.919 26.084C84.7603 26.1307 84.5783 26.154 84.373 26.154C84.1303 26.154 83.9296 26.1027 83.771 26C83.6123 25.9067 83.491 25.776 83.407 25.608C83.323 25.4307 83.267 25.2347 83.239 25.02H83.141C82.973 25.2533 82.7583 25.4587 82.497 25.636C82.245 25.804 81.9603 25.9347 81.643 26.028C81.3256 26.1213 80.9803 26.168 80.607 26.168ZM80.915 25.132C81.2136 25.132 81.4936 25.0853 81.755 24.992C82.0256 24.8987 82.2636 24.768 82.469 24.6C82.6743 24.4227 82.8376 24.2127 82.959 23.97C83.0803 23.7273 83.141 23.4613 83.141 23.172V22.556C82.385 22.556 81.741 22.598 81.209 22.682C80.677 22.766 80.2663 22.9153 79.977 23.13C79.697 23.3447 79.557 23.648 79.557 24.04C79.557 24.292 79.613 24.4973 79.725 24.656C79.837 24.8147 79.9956 24.936 80.201 25.02C80.4063 25.0947 80.6443 25.132 80.915 25.132ZM86.3879 26V15.878H87.6199V26H86.3879ZM91.3804 26.168C91.1097 26.168 90.8391 26.1353 90.5684 26.07C90.2977 26.0047 90.0457 25.8973 89.8124 25.748C89.5791 25.5987 89.3924 25.3933 89.2524 25.132C89.1124 24.8613 89.0424 24.5253 89.0424 24.124C89.0424 23.62 89.1637 23.2047 89.4064 22.878C89.6491 22.5513 89.9851 22.2993 90.4144 22.122C90.8531 21.9353 91.3711 21.8093 91.9684 21.744C92.5657 21.6693 93.2144 21.632 93.9144 21.632V20.792C93.9144 20.5213 93.8677 20.288 93.7744 20.092C93.6811 19.896 93.5131 19.7467 93.2704 19.644C93.0371 19.532 92.7011 19.476 92.2624 19.476C91.8424 19.476 91.5064 19.532 91.2544 19.644C91.0117 19.7467 90.8391 19.882 90.7364 20.05C90.6431 20.218 90.5964 20.4047 90.5964 20.61V20.82H89.4064C89.3971 20.7733 89.3924 20.7267 89.3924 20.68C89.3924 20.6333 89.3924 20.5773 89.3924 20.512C89.3924 20.064 89.5137 19.6907 89.7564 19.392C90.0084 19.084 90.3584 18.8553 90.8064 18.706C91.2544 18.5473 91.7677 18.468 92.3464 18.468C92.9624 18.468 93.4757 18.5567 93.8864 18.734C94.3064 18.9113 94.6191 19.1633 94.8244 19.49C95.0391 19.8167 95.1464 20.2087 95.1464 20.666V24.656C95.1464 24.8333 95.1884 24.9593 95.2724 25.034C95.3564 25.0993 95.4591 25.132 95.5804 25.132H96.1264V25.944C95.9957 26 95.8511 26.0467 95.6924 26.084C95.5337 26.1307 95.3517 26.154 95.1464 26.154C94.9037 26.154 94.7031 26.1027 94.5444 26C94.3857 25.9067 94.2644 25.776 94.1804 25.608C94.0964 25.4307 94.0404 25.2347 94.0124 25.02H93.9144C93.7464 25.2533 93.5317 25.4587 93.2704 25.636C93.0184 25.804 92.7337 25.9347 92.4164 26.028C92.0991 26.1213 91.7537 26.168 91.3804 26.168ZM91.6884 25.132C91.9871 25.132 92.2671 25.0853 92.5284 24.992C92.7991 24.8987 93.0371 24.768 93.2424 24.6C93.4477 24.4227 93.6111 24.2127 93.7324 23.97C93.8537 23.7273 93.9144 23.4613 93.9144 23.172V22.556C93.1584 22.556 92.5144 22.598 91.9824 22.682C91.4504 22.766 91.0397 22.9153 90.7504 23.13C90.4704 23.3447 90.3304 23.648 90.3304 24.04C90.3304 24.292 90.3864 24.4973 90.4984 24.656C90.6104 24.8147 90.7691 24.936 90.9744 25.02C91.1797 25.0947 91.4177 25.132 91.6884 25.132ZM97.1613 17.25V15.878H98.3933V17.25H97.1613ZM97.1613 26V18.636H98.3933V26H97.1613ZM102.882 26.168C102.378 26.168 101.935 26.1167 101.552 26.014C101.169 25.9113 100.852 25.762 100.6 25.566C100.348 25.37 100.157 25.1367 100.026 24.866C99.8952 24.5953 99.8298 24.2873 99.8298 23.942C99.8298 23.8953 99.8298 23.8533 99.8298 23.816C99.8298 23.7693 99.8345 23.732 99.8438 23.704H101.062C101.053 23.7413 101.048 23.774 101.048 23.802C101.048 23.83 101.048 23.858 101.048 23.886C101.057 24.2127 101.141 24.4693 101.3 24.656C101.468 24.8427 101.697 24.9733 101.986 25.048C102.275 25.1227 102.597 25.16 102.952 25.16C103.26 25.16 103.545 25.1227 103.806 25.048C104.067 24.964 104.273 24.8427 104.422 24.684C104.581 24.516 104.66 24.306 104.66 24.054C104.66 23.746 104.557 23.5127 104.352 23.354C104.156 23.186 103.895 23.0553 103.568 22.962C103.241 22.8687 102.901 22.7707 102.546 22.668C102.247 22.584 101.949 22.4907 101.65 22.388C101.351 22.2853 101.081 22.1593 100.838 22.01C100.605 21.8607 100.413 21.6693 100.264 21.436C100.124 21.1933 100.054 20.89 100.054 20.526C100.054 20.1993 100.119 19.91 100.25 19.658C100.39 19.406 100.586 19.1913 100.838 19.014C101.09 18.8367 101.393 18.706 101.748 18.622C102.112 18.5287 102.513 18.482 102.952 18.482C103.419 18.482 103.825 18.5333 104.17 18.636C104.525 18.7387 104.819 18.8833 105.052 19.07C105.285 19.2567 105.458 19.4713 105.57 19.714C105.682 19.9473 105.738 20.1993 105.738 20.47C105.738 20.526 105.738 20.582 105.738 20.638C105.738 20.6847 105.733 20.722 105.724 20.75H104.52V20.596C104.52 20.4093 104.469 20.232 104.366 20.064C104.273 19.8867 104.105 19.7467 103.862 19.644C103.629 19.532 103.302 19.476 102.882 19.476C102.611 19.476 102.378 19.4993 102.182 19.546C101.986 19.5833 101.823 19.6487 101.692 19.742C101.561 19.826 101.463 19.9287 101.398 20.05C101.333 20.162 101.3 20.2927 101.3 20.442C101.3 20.6847 101.379 20.8713 101.538 21.002C101.697 21.1327 101.907 21.24 102.168 21.324C102.439 21.408 102.728 21.5013 103.036 21.604C103.363 21.6973 103.694 21.7953 104.03 21.898C104.375 21.9913 104.688 22.1127 104.968 22.262C105.257 22.4113 105.486 22.6167 105.654 22.878C105.831 23.13 105.92 23.466 105.92 23.886C105.92 24.278 105.845 24.6187 105.696 24.908C105.547 25.1973 105.332 25.4353 105.052 25.622C104.781 25.8087 104.459 25.944 104.086 26.028C103.722 26.1213 103.321 26.168 102.882 26.168Z" fill="#003a5b"/>
</svg>
